<?xml version="1.0" encoding="UTF-8" standalone="no"?>
<!-- Created with Inkscape (http://www.inkscape.org/) -->

<svg
   xmlns:dc="http://purl.org/dc/elements/1.1/"
   xmlns:cc="http://creativecommons.org/ns#"
   xmlns:rdf="http://www.w3.org/1999/02/22-rdf-syntax-ns#"
   xmlns:svg="http://www.w3.org/2000/svg"
   xmlns="http://www.w3.org/2000/svg"
   xmlns:xlink="http://www.w3.org/1999/xlink"
   xmlns:sodipodi="http://sodipodi.sourceforge.net/DTD/sodipodi-0.dtd"
   xmlns:inkscape="http://www.inkscape.org/namespaces/inkscape"
   width="361.94528mm"
   height="98.521355mm"
   viewBox="0 0 361.94528 98.521355"
   version="1.1"
   id="svg8"
   inkscape:version="0.92.1 r"
   sodipodi:docname="independance-logo.svg"
   inkscape:export-filename="/home/countjocular/independance.pdf.png"
   inkscape:export-xdpi="300.09332"
   inkscape:export-ydpi="300.09332">
  <sodipodi:namedview
     id="base"
     pagecolor="#ffffff"
     bordercolor="#666666"
     borderopacity="1.0"
     inkscape:pageopacity="0.0"
     inkscape:pageshadow="2"
     inkscape:zoom="1.3499356"
     inkscape:cx="498.53403"
     inkscape:cy="221.03223"
     inkscape:document-units="mm"
     inkscape:current-layer="layer1"
     showgrid="false"
     inkscape:window-width="1888"
     inkscape:window-height="1061"
     inkscape:window-x="32"
     inkscape:window-y="0"
     inkscape:window-maximized="1"
     fit-margin-top="0"
     fit-margin-left="0"
     fit-margin-right="0"
     fit-margin-bottom="0" />
  <defs
     id="defs2">
    <linearGradient
       id="linearGradient4906"
       gradientTransform="matrix(7.822311e-5,9.008712e-6,9.008712e-6,-7.822311e-5,507.2865,325.2411)"
       gradientUnits="userSpaceOnUse"
       y2="7003877"
       x2="8382243"
       y1="3196182"
       x1="4574547">
      <stop
         id="stop4902"
         offset="0"
         style="stop-opacity:1;stop-color:#00ff92" />
      <stop
         style="stop-color:#14a3ec;stop-opacity:1"
         offset="0.2"
         id="stop4908" />
      <stop
         id="stop4910"
         offset="0.5"
         style="stop-color:#ae0ac8;stop-opacity:1" />
      <stop
         style="stop-color:#ca0000;stop-opacity:1"
         offset="0.80565804"
         id="stop4912" />
      <stop
         id="stop4904"
         offset="1"
         style="stop-opacity:1;stop-color:#f0f11d" />
    </linearGradient>
    <clipPath
       clipPathUnits="userSpaceOnUse"
       id="clipPath3736">
      <path
         d="M 0,0 H 960 V 540 H 0 Z"
         id="path3734"
         inkscape:connector-curvature="0" />
    </clipPath>
    <clipPath
       clipPathUnits="userSpaceOnUse"
       id="clipPath3758">
      <path
         d="m 558.5781,225.0022 c -0.4432,-0.0671 -0.9409,-0.1509 -1.4938,-0.2478 -0.5527,-0.0969 -1.0977,-0.2704 -1.6371,-0.5161 0.1942,-0.9106 0.3638,-1.8674 0.5098,-2.87 0.1462,-1.0029 0.321,-2.0214 0.5257,-3.0557 0.0599,-0.6689 0.1462,-1.3229 0.2595,-1.962 0.1132,-0.6393 0.1967,-1.2633 0.2511,-1.8716 0.3657,-1.5857 0.7553,-3.1589 1.173,-4.7188 0.4182,-1.5616 0.9681,-3.0847 1.6551,-4.5683 0.1113,-0.004 0.2518,-0.0237 0.4214,-0.0598 0.1697,-0.0361 0.3101,-0.0558 0.4214,-0.0595 0.1167,-0.0647 0.2585,-0.0998 0.4254,-0.1053 0.1669,-0.005 0.3061,-0.01 0.4174,-0.0131 1.108,0.0256 2.0628,0.2176 2.8664,0.5658 0.8048,0.3488 1.5202,0.7402 2.1524,1.1613 0.1063,0.06 0.1829,0.1367 0.2309,0.2289 0.0481,0.0922 0.1247,0.169 0.2311,0.2292 1.0303,1.0397 1.712,2.146 2.0637,3.2999 0.3525,1.1566 0.4767,2.3321 0.3786,3.5224 -0.1033,1.253 -0.3981,2.473 -0.8892,3.6564 -0.4903,1.1819 -1.0568,2.2994 -1.7065,3.3484 -0.003,0.0312 -0.005,0.0624 -0.008,0.0936 -0.2397,0.1823 -0.5095,0.3959 -0.8106,0.639 -0.301,0.2431 -0.6295,0.4862 -0.9866,0.7276 -0.8421,0.6666 -1.8186,1.2685 -2.9315,1.803 -1.1129,0.5346 -2.2862,0.7892 -3.5198,0.7725 z m 94.2648,12.8544 c -2.2826,-0.9188 -3.796,-2.1358 -4.5471,-3.6621 -0.7483,-1.521 -1.1315,-3.05 -1.1544,-4.5897 0.004,-0.076 0.009,-0.152 0.0132,-0.228 0.004,-0.0761 0.009,-0.1521 0.0132,-0.2281 0.1147,-0.0572 0.2557,-0.0911 0.4232,-0.1011 0.1676,-0.0101 0.3064,-0.006 0.4166,0.013 0.2249,-0.0385 0.4761,-0.0535 0.7538,-0.0446 0.2777,0.009 0.5818,0.0421 0.9123,0.0988 0.4406,0.0755 0.8787,0.1915 1.3149,0.3446 0.4364,0.1531 0.8718,0.3092 1.3079,0.4638 0.2202,0.039 0.439,0.0981 0.657,0.1757 0.218,0.0777 0.4367,0.1372 0.6568,0.1767 0.3259,0.1363 0.6534,0.2359 0.9834,0.2958 0.3301,0.06 0.6598,0.1212 0.9897,0.1816 0.5497,0.1008 1.1014,0.1649 1.6554,0.1895 0.5539,0.0246 1.0589,-0.078 1.5164,-0.3074 0.6508,0.2792 1.0467,0.6143 1.192,0.9986 0.1454,0.3845 0.2036,0.8129 0.1769,1.2838 -0.009,0.157 -0.0179,0.314 -0.0268,0.471 -0.009,0.157 -0.0178,0.314 -0.0267,0.4709 -0.1189,0.1351 -0.1836,0.3009 -0.1947,0.4971 -0.0112,0.1962 -0.0212,0.3727 -0.0301,0.5296 -0.004,0.0785 -0.009,0.1569 -0.0133,0.2354 -0.005,0.0785 -0.009,0.1569 -0.0134,0.2354 -0.005,0.0785 0.0183,0.1625 0.0689,0.252 0.0506,0.0895 0.0734,0.1736 0.069,0.2521 -0.002,0.0393 -0.005,0.0785 -0.007,0.1178 -0.4934,0.8514 -1.3596,1.4683 -2.6033,1.8443 -1.244,0.3761 -2.5794,0.4166 -4.0093,0.1321 -0.1099,-0.0219 -0.1924,-0.0384 -0.2474,-0.0494 -0.055,-0.0109 -0.1374,-0.0274 -0.2474,-0.0492 z m 180.8898,80.1896 c 0.3508,0.1804 0.6763,0.3481 0.9769,0.503 3.1158,1.488 6.1445,2.4184 9.0958,2.7676 2.9497,0.349 5.6407,-0.1638 8.0723,-1.5483 1.5734,-1.1141 2.7915,-2.6654 3.6629,-4.6436 0.8729,-1.9817 1.524,-4.1415 1.9592,-6.4753 0.0224,-0.232 0.0475,-0.493 0.0755,-0.783 0.028,-0.29 0.0587,-0.609 0.0922,-0.957 0.0224,-0.232 0.0448,-0.4641 0.0671,-0.6961 0.0224,-0.232 0.0447,-0.464 0.0671,-0.696 -0.0781,-0.2821 -0.1056,-0.5393 -0.0832,-0.7712 0.0223,-0.232 0.0447,-0.4639 0.067,-0.6959 -0.3794,-2.6177 -1.152,-4.9154 -2.3372,-6.881 -1.1829,-1.9618 -2.632,-3.8426 -4.3678,-5.6235 -0.101,-0.0479 -0.2495,-0.1489 -0.4463,-0.3018 -0.1968,-0.1529 -0.3454,-0.2538 -0.4464,-0.3016 -0.2021,-0.0956 -0.3789,-0.1797 -0.5306,-0.2513 -0.1517,-0.0716 -0.3285,-0.1556 -0.5308,-0.251 -1.9213,-0.9059 -3.6867,-1.2257 -5.2953,-0.9737 -1.6081,0.2519 -2.7113,1.3597 -3.3138,3.3175 -0.0103,0.1131 -0.0232,0.2544 -0.0387,0.424 -0.0154,0.1696 -0.0283,0.3109 -0.0386,0.424 -0.0206,0.2261 -0.0438,0.4805 -0.0696,0.7632 -0.0257,0.2827 -0.0489,0.5371 -0.0695,0.7632 -0.1855,2.0352 -0.5917,3.9046 -1.222,5.605 -0.6295,1.6981 -1.8854,2.4988 -3.7716,2.3983 -2.1093,-1.1449 -3.8378,-2.9768 -5.2046,-5.4839 -1.3633,-2.5005 -2.151,-4.9507 -2.3655,-7.3578 -0.2529,-1.9608 -0.4727,-3.9633 -0.6673,-6.0068 -0.1945,-2.0413 -0.2543,-4.0793 -0.1841,-6.115 -0.0643,-0.4871 -0.0742,-0.9793 -0.031,-1.4768 0.0432,-0.4976 0.084,-0.9674 0.1224,-1.4096 0.2854,-2.0565 0.694,-4.032 1.2331,-5.9259 0.5398,-1.896 1.4003,-3.575 2.5966,-5.0302 1.6311,-1.5084 3.5049,-2.5876 5.6404,-3.2078 2.1369,-0.6205 4.3845,-0.4524 6.7451,0.535 0.7187,0.3006 1.4021,0.679 2.0533,1.1295 0.6514,0.4506 1.3228,0.9455 2.0192,1.4774 0.7788,0.8028 1.4097,1.7007 1.9046,2.6839 0.4955,0.9842 0.9098,1.911 1.2553,2.7746 0.0811,0.2732 0.1889,0.5297 0.3263,0.7682 0.1375,0.2386 0.2452,0.4954 0.3261,0.7691 0.4263,1.1403 0.9553,2.2444 1.5989,3.3071 0.6444,1.0639 1.4701,1.8293 2.4856,2.2883 0.4063,0.1837 0.8459,0.2934 1.3192,0.3282 0.4733,0.0348 0.9744,0.0512 1.5036,0.0516 3.085,-4.4003 5.6454,-9.7125 7.7392,-15.8963 2.1017,-6.2073 3.4941,-12.8885 4.1928,-20.0189 0.7331,-7.4811 0.5334,-15.1461 -0.6526,-22.9589 -1.1802,-7.7754 -3.5247,-15.092 -7.1276,-21.8682 -2.3064,-4.1853 -5.0652,-7.4745 -8.2759,-9.8493 -3.2025,-2.3686 -6.7793,-4.1063 -10.7144,-5.2161 -0.6383,-0.18 -1.2768,-0.3591 -1.9154,-0.5372 -0.6385,-0.1781 -1.2825,-0.2997 -1.9315,-0.3649 -6.7105,-1.8529 -12.6556,-1.3223 -17.808,1.3857 -5.1356,2.6992 -9.166,6.7102 -12.1147,12.0221 -2.5848,5.0466 -4.6106,10.4587 -6.1047,16.2385 -1.4889,5.7604 -2.467,11.7395 -2.9531,17.948 -0.0494,0.6314 -0.0968,1.2364 -0.1421,1.8152 -0.0453,0.5788 -0.0885,1.1312 -0.1297,1.6574 -0.4898,10.4229 0.4246,21.1051 2.7015,32.1334 2.2987,11.1342 5.8701,21.9146 10.6796,32.4331 -0.005,0.0543 -0.009,0.1086 -0.0136,0.1628 2.1913,4.2936 4.9887,8.3039 8.3998,12.0427 3.4236,3.7525 7.0146,6.7322 10.8054,8.9088 0.3913,0.3177 0.7622,0.5671 1.1132,0.7475 z m -285.451,-81.95 c 6.8743,0.1459 13.4593,-0.2092 19.7617,-1.2057 6.2866,-0.9939 11.4285,-3.1096 15.3924,-6.4856 4.0952,-3.4453 7.4954,-7.141 10.2352,-11.0395 2.7561,-3.9216 4.8073,-7.9705 6.2097,-12.0967 0.6753,-1.6649 1.1785,-3.3756 1.5223,-5.1259 0.3441,-1.752 0.572,-3.4747 0.688,-5.1657 0.3109,-4.532 -0.256,-8.9925 -1.7369,-13.3356 -1.4672,-4.3031 -3.8011,-8.3095 -7.0821,-11.9149 -3.4988,-2.9534 -8.3532,-5.035 -14.5487,-6.1018 -6.1643,-1.0614 -12.986,-1.0308 -20.4254,0.033 -1.2035,0.1721 -2.4641,0.385 -3.7815,0.6391 -1.3178,0.2541 -2.6347,0.5109 -3.9517,0.771 -0.6552,0.1003 -1.312,0.2163 -1.9702,0.3479 -0.6584,0.1316 -1.3177,0.2786 -1.9783,0.4409 -4.0692,0.933 -8.0067,2.2313 -11.8194,3.8619 -3.8145,1.6313 -6.7057,3.6496 -8.6902,6.0298 -0.4939,0.5802 -0.9332,1.1507 -1.3189,1.7109 -0.3854,0.5599 -0.6106,1.1196 -0.6751,1.6797 -0.0129,0.1121 -0.0258,0.2241 -0.0387,0.3361 -0.0129,0.112 0.0288,0.2151 0.1253,0.309 -0.0129,0.1121 10e-4,0.2197 0.0433,0.3227 0.0418,0.1031 0.1108,0.2019 0.2073,0.2961 0.5482,0.8472 1.0647,1.7181 1.5557,2.6087 0.4925,0.8934 1.0079,1.802 1.553,2.7224 1.4683,2.4119 2.8313,4.9829 4.115,7.6968 1.2942,2.736 2.1617,5.5451 2.6297,8.4055 0.2184,1.0645 0.3497,2.1529 0.3988,3.2636 0.0492,1.1116 0.0156,2.2161 -0.0992,3.3128 -0.4437,3.1821 -1.6257,6.3416 -3.5718,9.4536 -1.9399,3.1022 -5.1848,6.1064 -9.7437,8.9992 -0.7235,0.4893 -1.2508,0.9673 -1.5828,1.4328 -0.3318,0.4653 -0.5266,0.9504 -0.5844,1.4554 -0.006,0.0561 -0.0129,0.1122 -0.0193,0.1683 -0.006,0.0561 -0.0161,0.1403 -0.0289,0.2525 0.01,0.8918 0.5837,1.7403 1.7199,2.5552 1.1411,0.8185 2.7567,1.3872 4.8513,1.7198 -0.003,0.0285 -0.006,0.0569 -0.009,0.0854 3.4435,0.3491 7.092,0.6716 10.9458,0.9744 3.8577,0.3032 7.7577,0.5032 11.7022,0.5869 z m 338.545,111.3471 c 1.0742,0.6201 2.1502,1.2114 3.2293,1.7735 1.0786,0.5619 2.1048,1.1273 3.0785,1.6957 0.597,0.2191 1.1632,0.4853 1.6983,0.7985 0.5353,0.3132 1.0457,0.6125 1.5318,0.8977 1.6661,0.8478 3.2815,1.6697 4.8475,2.4648 1.566,0.795 3.075,1.6252 4.5279,2.4905 0.1936,0.1153 0.4356,0.2595 0.726,0.4327 0.2904,0.1732 0.5808,0.3466 0.8712,0.52 -0.007,0.0618 -0.0137,0.1237 -0.0206,0.1855 1.1886,0.4464 2.1485,0.6249 2.8807,0.534 0.7322,-0.0909 1.3814,-0.365 1.9481,-0.8213 0.1246,-0.1908 0.2697,-0.3361 0.4357,-0.4359 0.1659,-0.0998 0.3596,-0.2163 0.5808,-0.3496 1.5785,-1.1824 2.9831,-2.6747 4.2183,-4.4712 1.2373,-1.7998 2.134,-3.8049 2.6944,-6.0105 0.1396,-0.3184 0.234,-0.6968 0.2837,-1.1347 0.0496,-0.4379 0.0957,-0.8445 0.1382,-1.2199 0.1419,-1.2511 0.1593,-2.5414 0.0506,-3.8704 -0.1087,-1.3284 -0.3411,-2.6952 -0.7015,-4.0988 -0.4166,-0.903 -0.9222,-1.6918 -1.5212,-2.3641 -0.5987,-0.672 -1.2874,-1.2301 -2.0678,-1.6718 -0.3905,-0.221 -0.7877,-0.38 -1.192,-0.4764 -0.4043,-0.0965 -0.7597,-0.1652 -1.0664,-0.2065 -0.4182,0.0275 -0.8365,0.0555 -1.2548,0.0829 -0.4183,0.0273 -0.8431,0.1174 -1.2753,0.2681 -0.4458,0.2744 -0.922,0.5981 -1.4306,0.9678 -0.5082,0.3695 -0.9908,0.7539 -1.4502,1.1501 -1.238,0.8726 -2.5302,1.5502 -3.88,2.0258 -1.349,0.4753 -2.755,0.2956 -4.2222,-0.5328 -0.3912,-0.2208 -0.821,-0.5616 -1.2909,-1.0206 -0.4698,-0.4588 -0.9355,-0.9486 -1.3993,-1.4671 -0.4506,-0.6405 -0.786,-1.3788 -1.0087,-2.2138 -0.2226,-0.8345 -0.2877,-1.6783 -0.1961,-2.5317 0.1769,-0.6772 0.3745,-1.3106 0.5942,-1.9 0.2198,-0.5895 0.5518,-1.0208 0.9977,-1.2924 0.7538,-0.2314 1.5855,-0.2281 2.4961,0.0139 0.9102,0.2419 1.8692,0.5116 2.8774,0.8086 0,0 0.0244,0.0136 0.0735,0.0407 0.049,0.0271 0.1226,0.0679 0.2206,0.1221 1.7075,0.554 3.2556,0.8922 4.6459,1.0116 1.3898,0.1193 2.2567,-0.9079 2.6014,-3.0801 0.0411,-0.3712 0.0822,-0.7423 0.1233,-1.1134 0.0411,-0.3712 0.1311,-0.7153 0.2704,-1.0323 0.0138,-0.1238 0.0274,-0.2475 0.0411,-0.3712 0.0137,-0.1238 0.0274,-0.2475 0.0412,-0.3712 0.0274,-0.2475 0.0548,-0.4949 0.0822,-0.7424 0.0274,-0.2474 0.0548,-0.4949 0.0822,-0.7424 0.1507,-1.361 0.1238,-2.754 -0.0845,-4.1778 -0.208,-1.4228 -0.8864,-2.578 -2.0424,-3.4587 -0.4076,-0.0883 -0.7836,-0.2252 -1.1286,-0.4099 -0.3449,-0.1845 -0.7142,-0.383 -1.1088,-0.5937 -1.5781,-0.8424 -2.9451,-1.9305 -4.1096,-3.2557 -1.1637,-1.3242 -2.0453,-3.0496 -2.657,-5.1714 -0.1462,-0.5911 -0.2417,-1.1565 -0.2887,-1.6959 -0.0471,-0.5394 -0.0374,-1.114 0.0281,-1.7239 0.1705,-1.586 0.7769,-2.8535 1.8238,-3.7994 1.0482,-0.9472 2.2287,-1.2182 3.5462,-0.8035 0.3112,0.0299 0.6157,0.1211 0.9138,0.2736 0.298,0.1524 0.5457,0.28 0.7442,0.3817 1.6875,0.8649 3.0228,2.2755 4.013,4.2238 0.9915,1.951 1.8349,3.9698 2.5459,6.0486 0.1702,0.3521 0.3143,0.6919 0.435,1.0182 0.1207,0.3264 0.2157,0.6401 0.287,0.9405 0.639,1.7844 1.316,3.4014 2.0416,4.8458 0.7266,1.446 1.6748,2.4931 2.852,3.1358 0.4908,0.2679 1.016,0.4568 1.5763,0.5653 0.5601,0.1084 1.1623,0.0737 1.807,-0.1029 2.6483,-0.4028 4.5415,-2.4309 5.6881,-6.0731 1.1482,-3.6471 2.1187,-7.5944 2.9189,-11.8382 0.4568,-2.1595 0.9087,-4.2887 1.359,-6.3869 0.4504,-2.099 1.0291,-3.9648 1.7408,-5.5963 0.5601,-3.047 1.0672,-6.3224 1.5227,-9.8254 0.4557,-3.5033 0.8936,-7.0824 1.3141,-10.7371 0.029,-0.252 0.0616,-0.5356 0.0979,-0.8506 0.0362,-0.3151 0.0689,-0.5986 0.0979,-0.8507 0.8137,-7.9881 1.1872,-15.7882 1.1067,-23.3917 -0.0805,-7.5902 -1.244,-13.5503 -3.5216,-17.8551 -2.1828,-4.1195 -5.4217,-7.6933 -9.7351,-10.6723 -4.3058,-2.9737 -8.9834,-5.4563 -14.0216,-7.4422 -0.1028,-0.0405 -0.2312,-0.0912 -0.3855,-0.1519 -0.1544,-0.0607 -0.283,-0.1113 -0.3859,-0.1517 -5.4653,-2.0201 -10.752,-3.3897 -15.8372,-4.1489 -5.0909,-0.76 -8.9165,-0.77 -11.4659,-0.0875 -3.0013,0.8884 -5.4581,2.3035 -7.3777,4.2333 -1.915,1.9252 -3.0488,4.6974 -3.4039,8.3208 -0.0458,0.4675 -0.0887,0.9058 -0.1288,1.3149 -0.0401,0.4091 -0.083,0.8474 -0.1288,1.3149 -0.5955,6.0779 -0.3699,12.2607 0.6685,18.5688 1.0426,6.3333 2.1892,12.6623 3.4741,18.9846 0.1457,0.6778 0.2888,1.3566 0.4341,2.0353 0.1454,0.679 0.2882,1.3589 0.4331,2.0387 1.1384,5.6863 2.0594,11.3803 2.8056,17.0694 0.7484,5.7062 0.8327,11.2487 0.2849,16.6106 -0.28,2.7405 -0.7925,5.4587 -1.5414,8.1509 -0.7481,2.689 -1.7655,5.2679 -3.067,7.727 -0.3718,0.5585 -0.7385,1.0883 -1.1039,1.5865 -0.3653,0.4979 -0.7314,1.0265 -1.1026,1.5827 -1.4462,1.8663 -2.7662,3.8542 -3.9731,5.9559 -1.2041,2.0967 -1.9443,4.5568 -2.2255,7.3824 -0.0703,0.7064 -0.0912,1.4394 -0.0624,2.1991 0.0288,0.76 0.0572,1.5201 0.0858,2.2804 2.1391,4.7651 4.9126,8.677 8.3364,11.7364 3.4289,3.0639 7.0892,5.73 10.9944,7.9845 z m -160.779,-74.2252 c 0.2123,0.0768 0.3979,0.144 0.557,0.2018 0.1592,0.0577 0.3446,0.125 0.5566,0.2021 3.2863,1.1951 6.4573,1.928 9.5231,2.1673 3.0631,0.2391 5.6566,-0.2058 7.7796,-1.3533 4.0799,-4.3449 7.3586,-9.3718 9.8985,-15.0108 2.5593,-5.6824 4.9383,-11.5796 7.2022,-17.6598 0.1336,-0.359 0.2654,-0.7187 0.3991,-1.078 0.1337,-0.3593 0.2622,-0.6704 0.3891,-0.9317 1.0514,-2.5864 2.0596,-5.1714 3.0559,-7.7421 0.9992,-2.578 2.0613,-5.1225 3.2188,-7.6207 0.128,-0.2671 0.334,-0.5128 0.622,-0.7334 0.2882,-0.2208 0.5409,-0.3525 0.761,-0.3904 0.3338,-0.1064 0.6561,-0.0645 0.969,0.1267 0.313,0.1913 0.4475,0.588 0.4051,1.1872 0,0 -0.003,0.05 -0.0106,0.1498 -1.2628,8.5911 -3.0933,16.795 -5.544,24.5702 -2.4337,7.7213 -5.4047,14.86 -8.9924,21.3579 -0.1251,0.2532 -0.225,0.541 -0.3008,0.8628 -0.0758,0.3218 -0.1268,0.6781 -0.1533,1.0687 -0.0199,0.2929 -0.0153,0.6204 0.014,0.9824 0.0293,0.362 0.0861,0.71 0.1711,1.0436 0.2942,2.0206 1.1482,4.0898 2.5565,6.2191 1.4131,2.1366 3.1414,3.8384 5.193,5.1032 2.0534,1.2661 4.1043,2.496 6.1547,3.6866 2.0514,1.1912 4.1077,2.2431 6.1727,3.1503 3.0975,1.3608 6.0391,2.2014 8.8352,2.4946 2.7943,0.293 5.2679,-0.4227 7.4193,-2.1625 0.2626,-0.6417 0.4752,-1.3332 0.6393,-2.0741 0.1641,-0.741 0.2745,-1.479 0.3317,-2.2134 0.1633,-2.0984 0.0165,-4.2785 -0.4502,-6.5346 -0.466,-2.2518 -1.0814,-4.5655 -1.8651,-6.9331 -0.2554,-0.8573 -0.5334,-1.7253 -0.842,-2.6014 -0.3082,-0.8753 -0.5873,-1.7401 -0.8446,-2.5922 -1.1464,-3.2338 -2.1499,-6.4828 -3.0388,-9.7402 -0.8859,-3.2461 -1.2111,-6.4091 -0.9799,-9.4966 0.0155,-0.2059 0.0328,-0.4374 0.0521,-0.6948 0.0192,-0.2572 0.0366,-0.4888 0.052,-0.6946 0.0231,-0.3088 0.0702,-0.5826 0.1423,-0.8213 0.072,-0.2387 0.1153,-0.4611 0.1307,-0.667 0.5894,-4.9722 1.7141,-9.6377 3.4001,-14.0008 1.6935,-4.3825 3.4959,-8.7286 5.4563,-13.0207 0.3836,-0.7357 0.7357,-1.4829 1.0662,-2.2366 0.3309,-0.7544 0.6311,-1.5191 0.9088,-2.2909 1.7205,-3.8769 3.2389,-7.8607 4.594,-11.9324 1.3596,-4.085 2.2104,-8.4018 2.5666,-12.9346 0.1823,-2.3191 0.209,-4.7311 0.0762,-7.2336 -0.1326,-2.4997 -0.5272,-5.113 -1.1944,-7.8334 -1.8473,-2.9786 -4.0931,-5.196 -6.7335,-6.6406 -1.3184,-0.7212 -2.6745,-1.3314 -4.0673,-1.8313 -1.4275,-0.3956 -2.8563,-0.7859 -4.2862,-1.1706 0,0 -5e-4,-10e-5 -5e-4,-10e-5 -2.1587,-0.2073 -4.3185,-0.4066 -6.4795,-0.5979 -2.1417,-0.0853 -4.2064,-0.0986 -6.1933,-0.0435 -0.3336,0.0424 -0.6653,0.06 -0.9954,0.0528 -0.33,-0.007 -0.6619,0.0107 -0.9954,0.0535 -3.0433,0.9811 -5.2445,2.5754 -6.6106,4.7764 -1.3616,2.1937 -2.4522,4.5023 -3.2796,6.9253 -0.1355,0.3708 -0.2667,0.6928 -0.3955,0.9655 -0.1288,0.2726 -0.2567,0.5455 -0.3854,0.8178 -0.1619,0.7605 -0.3732,1.4619 -0.6372,2.103 -0.2639,0.6406 -0.5254,1.2816 -0.7892,1.9211 -0.2768,0.8338 -0.5225,1.6488 -0.7416,2.4436 -0.219,0.7943 -0.4073,1.5698 -0.5685,2.3257 -0.2829,0.9275 -0.5327,1.8121 -0.7547,2.6525 -0.2217,0.8398 -0.4677,1.6742 -0.7437,2.5012 -2.0169,7.1255 -4.1025,14.1195 -6.3188,20.9591 -2.202,6.7954 -4.9271,13.1875 -8.2795,19.1055 0,0 -0.0576,0.0561 -0.1741,0.1671 -0.1164,0.111 -0.233,0.2468 -0.3526,0.405 -0.2199,0.0328 -0.4411,0.0905 -0.6643,0.1703 -0.2231,0.0797 -0.4946,0.0739 -0.8155,-0.0176 -0.107,-0.0306 -0.1604,-0.046 -0.1604,-0.046 -1.3438,-1.1471 -2.2575,-2.5323 -2.7589,-4.1477 -0.5003,-1.6118 -0.6929,-3.2597 -0.5861,-4.944 0.0177,-0.2807 0.0355,-0.5614 0.0533,-0.8421 0.0178,-0.2807 0.0886,-0.5478 0.2145,-0.8004 0.0534,-0.8424 0.2129,-1.6578 0.4828,-2.4453 0.2701,-0.7881 0.5328,-1.5317 0.797,-2.2274 0.7094,-2.4933 1.7623,-5.0072 3.1872,-7.5345 1.4308,-2.5374 2.9273,-5.1767 4.5321,-7.8953 0.6171,-1.0194 1.2274,-2.07 1.8476,-3.1419 0.6212,-1.0737 1.236,-2.1782 1.8603,-3.3047 1.271,-2.5466 2.3932,-5.1635 3.3961,-7.8353 1.0059,-2.6795 1.5924,-5.3759 1.7722,-8.0779 0.2248,-3.3775 -0.3928,-6.7827 -1.8845,-10.1842 -1.4831,-3.3818 -4.2096,-6.6258 -8.2292,-9.631 -1.5154,-0.4829 -3.1177,-0.9219 -4.8064,-1.3156 -1.6882,-0.3935 -3.4083,-0.7353 -5.1596,-1.0261 -0.6833,-0.1236 -1.3668,-0.246 -2.0504,-0.3671 -0.6868,-0.0752 -1.3737,-0.1493 -2.0607,-0.2223 -2.0689,-0.0817 -4.1384,-0.1556 -6.2085,-0.2218 -2.0512,0.0721 -3.9784,0.3894 -5.7817,0.9407 -2.5785,0.5693 -4.6047,1.6807 -6.0869,3.3182 -1.4777,1.6328 -2.7131,3.4135 -3.7134,5.3398 -0.2561,0.59 -0.5092,1.1584 -0.7628,1.7035 -0.2534,0.5448 -0.5062,1.1117 -0.7623,1.6991 -0.068,0.482 -0.1355,0.964 -0.2035,1.4459 -0.0932,-1.1955 -0.1849,-2.3902 -0.2784,-3.5839 -0.2875,-1.2433 -0.7556,-2.4105 -1.4134,-3.4955 -1.3106,-2.1618 -3.527,-3.9357 -6.6645,-5.2677 -2.0533,-0.8265 -4.2799,-1.5628 -6.6797,-2.2005 -2.397,-0.6369 -4.9201,-1.0497 -7.5651,-1.2419 -0.8785,-0.1192 -1.7859,-0.2168 -2.7221,-0.2925 -0.9363,-0.0757 -1.8462,-0.1277 -2.7296,-0.1566 -3.0922,-0.1011 -5.9507,0.0712 -8.5734,0.4941 -2.6234,0.4229 -4.7416,1.2609 -6.3616,2.4922 -2.658,2.074 -4.5558,4.358 -5.6979,6.8612 -1.1381,2.4941 -1.7862,5.1322 -1.9455,7.9219 -0.1549,2.712 0.013,5.541 0.5116,8.493 0.5002,2.9618 1.0959,5.9649 1.8126,9.007 0,0 0.0251,0.0418 0.076,0.1249 0.051,0.0831 0.076,0.1249 0.076,0.1249 0.6218,2.8114 1.1743,5.5923 1.6868,8.335 0.5142,2.7516 0.7456,5.3995 0.7134,7.9349 0,0 -0.001,0.0197 -0.003,0.059 -0.002,0.0394 -0.006,0.0985 -0.01,0.1773 -0.005,0.0788 -0.008,0.1378 -0.0101,0.1772 -0.002,0.0394 -0.003,0.0591 -0.003,0.0591 -0.009,0.1576 -0.0179,0.3151 -0.0268,0.4727 -0.009,0.1575 -0.0179,0.3151 -0.0268,0.4727 -0.3195,1.7009 -1.0913,3.2186 -2.3359,4.5334 -1.2416,1.3114 -3.1277,1.8487 -5.6686,1.6356 -0.1101,-0.0159 -0.2476,-0.0363 -0.4128,-0.0601 -0.1652,-0.0239 -0.3579,-0.0523 -0.5782,-0.0838 -2.0927,-0.2996 -3.9112,-0.9466 -5.4716,-1.9153 -1.5562,-0.966 -2.5047,-2.2693 -2.8572,-3.9089 -0.0715,-0.6926 -0.1148,-1.3629 -0.133,-2.0108 -0.0183,-0.6477 -0.009,-1.2734 0.0258,-1.8772 0.1537,-2.6414 0.6622,-5.2306 1.5341,-7.7711 0.8744,-2.5479 1.819,-5.1215 2.8587,-7.7132 0.2705,-0.8208 0.5656,-1.6608 0.8934,-2.5175 0.3281,-0.8576 0.6233,-1.7006 0.8934,-2.526 0.6566,-1.7223 1.1946,-3.4583 1.6284,-5.2017 0.4344,-1.7459 0.6995,-3.5031 0.8008,-5.2682 0.1323,-2.3022 -0.0899,-4.6351 -0.6768,-6.9895 -0.5847,-2.346 -1.7352,-4.752 -3.4813,-7.1843 -1.2274,-1.6616 -3.4208,-2.8572 -6.5836,-3.5403 -3.1571,-0.6818 -6.5575,-1.0233 -10.1931,-1.0311 -0.4371,-0.056 -0.9318,-0.073 -1.4839,-0.0509 -0.5521,0.0222 -1.0491,0.0428 -1.4906,0.0614 -2.7601,0.1167 -5.2792,0.3652 -7.5567,0.7309 -2.278,0.3658 -4.0344,0.7634 -5.2704,1.1822 -2.5913,0.9837 -4.7532,2.1487 -6.4921,3.4838 -1.736,1.333 -3.2049,2.7802 -4.4126,4.3383 -0.5201,1.1796 -0.9264,2.318 -1.2219,3.4149 -0.2952,1.0959 -0.477,2.1523 -0.5464,3.1697 -0.2638,3.866 0.6511,7.4706 2.7441,10.8513 2.1154,3.4168 4.367,6.8385 6.8075,10.2383 2.5755,3.5112 4.8758,7.1609 6.9791,10.8847 2.1254,3.7626 3.0265,7.7605 2.7695,11.9179 -0.0754,1.2185 -0.2593,2.4072 -0.5555,3.5643 -0.2958,1.1559 -0.7573,2.3464 -1.3946,3.5656 -0.276,0.8297 -0.7132,1.6043 -1.3189,2.3183 -0.6049,0.7131 -1.2625,1.4205 -1.9796,2.1154 0,0 -0.0289,0.0143 -0.0867,0.0427 -0.0579,0.0284 -0.089,0.0781 -0.0934,0.1489 -0.8455,0.9625 -1.6603,1.9281 -2.4522,2.8908 -0.7905,0.961 -1.2212,2.0031 -1.293,3.1273 -0.0314,0.4919 0.0204,0.9954 0.1563,1.5106 0.1359,0.5157 0.3543,1.0442 0.6571,1.5851 2.123,2.0894 4.8516,3.7198 8.1977,4.9057 3.3531,1.1884 6.8492,2.1788 10.4962,2.9569 0.4425,0.0854 0.9127,0.1768 1.4104,0.2741 0.4977,0.0974 1.023,0.201 1.5756,0.3108 0.6632,0.1316 1.2985,0.2593 1.9061,0.3821 0.6076,0.1228 1.1872,0.2413 1.7391,0.3546 0.5563,0.0384 1.1104,0.115 1.662,0.2298 0.5515,0.1149 1.1029,0.2308 1.6542,0.3473 -0.002,0.0379 -0.004,0.0757 -0.007,0.1135 1.7683,0.2977 3.5318,0.6603 5.2899,1.0882 1.7585,0.4281 3.4606,0.8342 5.1076,1.2146 1.6471,0.3804 3.2912,0.7881 4.9328,1.2222 1.6413,0.4341 3.2821,0.8568 4.9223,1.2657 4.0459,1.0089 7.9802,1.8547 11.8103,2.5122 3.8269,0.6569 7.6152,0.8966 11.3709,0.6797 0.6787,-0.3198 1.2469,-0.6518 1.7065,-0.9928 0.4598,-0.3413 0.8633,-0.6787 1.2123,-1.0098 0.241,-0.3619 0.4282,-0.7611 0.5632,-1.1964 0.1351,-0.4356 0.2168,-0.9077 0.2458,-1.416 0.0678,-1.1859 -0.1852,-2.4819 -0.7681,-3.8812 -0.5814,-1.3956 -1.2104,-2.8245 -1.9019,-4.279 -0.5953,-1.1716 -1.1558,-2.3773 -1.6946,-3.611 -0.5377,-1.2308 -0.8271,-2.4019 -0.8748,-3.5133 -0.456,-1.7108 -0.7439,-3.3816 -0.8734,-5.0129 -0.1292,-1.6295 -0.1521,-3.1512 -0.0718,-4.5662 0.203,-3.5791 1.021,-6.8942 2.4682,-9.9516 1.4539,-3.0717 3.126,-6.067 5.061,-8.9654 0.722,-0.985 1.4068,-1.9845 2.0733,-2.9849 0.6678,-1.0023 1.3556,-2.0517 2.0824,-3.1361 2.6544,-3.6227 5.0623,-7.5373 7.2925,-11.6946 1.1207,-2.089 2.0423,-4.3337 2.7905,-6.7201 0.5216,-2.3415 1.0379,-4.6881 1.5595,-7.0376 0.0639,2.2055 0.1247,4.413 0.1881,6.6224 0.2581,2.2345 0.7008,4.4796 1.3435,6.7352 1.2917,4.5333 2.6604,9.0398 4.161,13.5059 0.5583,1.8051 1.1302,3.6032 1.7421,5.3863 0.6136,1.7881 1.1854,3.5592 1.7433,5.3036 0.7196,2.7813 1.283,5.5476 1.7246,8.2883 0.4427,2.7477 0.577,5.431 0.4198,8.0419 -0.179,2.9709 -0.8383,5.8605 -1.9972,8.6517 -1.1547,2.7807 -2.9907,5.4124 -5.5535,7.8447 -0.1237,0.2353 -0.301,0.4784 -0.5351,0.7267 -0.234,0.2481 -0.4139,0.5348 -0.5429,0.8579 -0.9509,1.2545 -1.8212,2.6419 -2.6243,4.1542 -0.8011,1.5085 -1.2486,3.0968 -1.3467,4.7665 -0.0413,0.703 -0.002,1.4309 0.1177,2.184 0.1201,0.7536 0.3733,1.5502 0.761,2.39 -0.003,0.0441 -0.005,0.0881 -0.008,0.1322 2.0482,2.4471 4.6646,4.7523 7.8497,6.9343 3.1946,2.1886 6.531,3.9718 10.0255,5.33 z"
         id="path3756"
         inkscape:connector-curvature="0"
         style="clip-rule:evenodd" />
    </clipPath>
    <clipPath
       clipPathUnits="userSpaceOnUse"
       id="clipPath3764">
      <path
         d="M 0,0 H 960 V 540 H 0 Z"
         id="path3762"
         inkscape:connector-curvature="0" />
    </clipPath>
    <linearGradient
       x1="-3040844"
       y1="-4419210"
       x2="766851.19"
       y2="-611514.31"
       gradientUnits="userSpaceOnUse"
       gradientTransform="matrix(7.822311e-5,9.008712e-6,9.008712e-6,-7.822311e-5,507.2865,325.2411)"
       id="linearGradient3772">
      <stop
         style="stop-opacity:1;stop-color:#ffff00"
         offset="0"
         id="stop3768" />
      <stop
         style="stop-opacity:1;stop-color:#00b050"
         offset="1"
         id="stop3770" />
    </linearGradient>
    <linearGradient
       x1="766851.19"
       y1="-611514.31"
       x2="4574547"
       y2="3196182"
       gradientUnits="userSpaceOnUse"
       gradientTransform="matrix(7.822311e-5,9.008712e-6,9.008712e-6,-7.822311e-5,507.2865,325.2411)"
       id="linearGradient3782">
      <stop
         style="stop-opacity:1;stop-color:#00b050"
         offset="0"
         id="stop3778" />
      <stop
         style="stop-opacity:1;stop-color:#ffff00"
         offset="1"
         id="stop3780" />
    </linearGradient>
    <linearGradient
       x1="4574547"
       y1="3196182"
       x2="8382243"
       y2="7003877"
       gradientUnits="userSpaceOnUse"
       gradientTransform="matrix(7.822311e-5,9.008712e-6,9.008712e-6,-7.822311e-5,507.2865,325.2411)"
       id="linearGradient3792">
      <stop
         style="stop-opacity:1;stop-color:#ffff00"
         offset="0"
         id="stop3788" />
      <stop
         style="stop-opacity:1;stop-color:#00b050"
         offset="1"
         id="stop3790" />
    </linearGradient>
    <clipPath
       clipPathUnits="userSpaceOnUse"
       id="clipPath3802">
      <path
         d="M 0,0 H 960 V 540 H 0 Z"
         id="path3800"
         inkscape:connector-curvature="0" />
    </clipPath>
    <clipPath
       clipPathUnits="userSpaceOnUse"
       id="clipPath3907">
      <path
         d="M 0,0 H 960 V 540 H 0 Z"
         id="path3905"
         inkscape:connector-curvature="0" />
    </clipPath>
    <clipPath
       clipPathUnits="userSpaceOnUse"
       id="clipPath3929">
      <path
         d="m 558.5781,225.0022 c -0.4432,-0.0671 -0.9409,-0.1509 -1.4938,-0.2478 -0.5527,-0.0969 -1.0977,-0.2704 -1.6371,-0.5161 0.1942,-0.9106 0.3638,-1.8674 0.5098,-2.87 0.1462,-1.0029 0.321,-2.0214 0.5257,-3.0557 0.0599,-0.6689 0.1462,-1.3229 0.2595,-1.962 0.1132,-0.6393 0.1967,-1.2633 0.2511,-1.8716 0.3657,-1.5857 0.7553,-3.1589 1.173,-4.7188 0.4182,-1.5616 0.9681,-3.0847 1.6551,-4.5683 0.1113,-0.004 0.2518,-0.0237 0.4214,-0.0598 0.1697,-0.0361 0.3101,-0.0558 0.4214,-0.0595 0.1167,-0.0647 0.2585,-0.0998 0.4254,-0.1053 0.1669,-0.005 0.3061,-0.01 0.4174,-0.0131 1.108,0.0256 2.0628,0.2176 2.8664,0.5658 0.8048,0.3488 1.5202,0.7402 2.1524,1.1613 0.1063,0.06 0.1829,0.1367 0.2309,0.2289 0.0481,0.0922 0.1247,0.169 0.2311,0.2292 1.0303,1.0397 1.712,2.146 2.0637,3.2999 0.3525,1.1566 0.4767,2.3321 0.3786,3.5224 -0.1033,1.253 -0.3981,2.473 -0.8892,3.6564 -0.4903,1.1819 -1.0568,2.2994 -1.7065,3.3484 -0.003,0.0312 -0.005,0.0624 -0.008,0.0936 -0.2397,0.1823 -0.5095,0.3959 -0.8106,0.639 -0.301,0.2431 -0.6295,0.4862 -0.9866,0.7276 -0.8421,0.6666 -1.8186,1.2685 -2.9315,1.803 -1.1129,0.5346 -2.2862,0.7892 -3.5198,0.7725 z m 94.2648,12.8544 c -2.2826,-0.9188 -3.796,-2.1358 -4.5471,-3.6621 -0.7483,-1.521 -1.1315,-3.05 -1.1544,-4.5897 0.004,-0.076 0.009,-0.152 0.0132,-0.228 0.004,-0.0761 0.009,-0.1521 0.0132,-0.2281 0.1147,-0.0572 0.2557,-0.0911 0.4232,-0.1011 0.1676,-0.0101 0.3064,-0.006 0.4166,0.013 0.2249,-0.0385 0.4761,-0.0535 0.7538,-0.0446 0.2777,0.009 0.5818,0.0421 0.9123,0.0988 0.4406,0.0755 0.8787,0.1915 1.3149,0.3446 0.4364,0.1531 0.8718,0.3092 1.3079,0.4638 0.2202,0.039 0.439,0.0981 0.657,0.1757 0.218,0.0777 0.4367,0.1372 0.6568,0.1767 0.3259,0.1363 0.6534,0.2359 0.9834,0.2958 0.3301,0.06 0.6598,0.1212 0.9897,0.1816 0.5497,0.1008 1.1014,0.1649 1.6554,0.1895 0.5539,0.0246 1.0589,-0.078 1.5164,-0.3074 0.6508,0.2792 1.0467,0.6143 1.192,0.9986 0.1454,0.3845 0.2036,0.8129 0.1769,1.2838 -0.009,0.157 -0.0179,0.314 -0.0268,0.471 -0.009,0.157 -0.0178,0.314 -0.0267,0.4709 -0.1189,0.1351 -0.1836,0.3009 -0.1947,0.4971 -0.0112,0.1962 -0.0212,0.3727 -0.0301,0.5296 -0.004,0.0785 -0.009,0.1569 -0.0133,0.2354 -0.005,0.0785 -0.009,0.1569 -0.0134,0.2354 -0.005,0.0785 0.0183,0.1625 0.0689,0.252 0.0506,0.0895 0.0734,0.1736 0.069,0.2521 -0.002,0.0393 -0.005,0.0785 -0.007,0.1178 -0.4934,0.8514 -1.3596,1.4683 -2.6033,1.8443 -1.244,0.3761 -2.5794,0.4166 -4.0093,0.1321 -0.1099,-0.0219 -0.1924,-0.0384 -0.2474,-0.0494 -0.055,-0.0109 -0.1374,-0.0274 -0.2474,-0.0492 z m 180.8898,80.1896 c 0.3508,0.1804 0.6763,0.3481 0.9769,0.503 3.1158,1.488 6.1445,2.4184 9.0958,2.7676 2.9497,0.349 5.6407,-0.1638 8.0723,-1.5483 1.5734,-1.1141 2.7915,-2.6654 3.6629,-4.6436 0.8729,-1.9817 1.524,-4.1415 1.9592,-6.4753 0.0224,-0.232 0.0475,-0.493 0.0755,-0.783 0.028,-0.29 0.0587,-0.609 0.0922,-0.957 0.0224,-0.232 0.0448,-0.4641 0.0671,-0.6961 0.0224,-0.232 0.0447,-0.464 0.0671,-0.696 -0.0781,-0.2821 -0.1056,-0.5393 -0.0832,-0.7712 0.0223,-0.232 0.0447,-0.4639 0.067,-0.6959 -0.3794,-2.6177 -1.152,-4.9154 -2.3372,-6.881 -1.1829,-1.9618 -2.632,-3.8426 -4.3678,-5.6235 -0.101,-0.0479 -0.2495,-0.1489 -0.4463,-0.3018 -0.1968,-0.1529 -0.3454,-0.2538 -0.4464,-0.3016 -0.2021,-0.0956 -0.3789,-0.1797 -0.5306,-0.2513 -0.1517,-0.0716 -0.3285,-0.1556 -0.5308,-0.251 -1.9213,-0.9059 -3.6867,-1.2257 -5.2953,-0.9737 -1.6081,0.2519 -2.7113,1.3597 -3.3138,3.3175 -0.0103,0.1131 -0.0232,0.2544 -0.0387,0.424 -0.0154,0.1696 -0.0283,0.3109 -0.0386,0.424 -0.0206,0.2261 -0.0438,0.4805 -0.0696,0.7632 -0.0257,0.2827 -0.0489,0.5371 -0.0695,0.7632 -0.1855,2.0352 -0.5917,3.9046 -1.222,5.605 -0.6295,1.6981 -1.8854,2.4988 -3.7716,2.3983 -2.1093,-1.1449 -3.8378,-2.9768 -5.2046,-5.4839 -1.3633,-2.5005 -2.151,-4.9507 -2.3655,-7.3578 -0.2529,-1.9608 -0.4727,-3.9633 -0.6673,-6.0068 -0.1945,-2.0413 -0.2543,-4.0793 -0.1841,-6.115 -0.0643,-0.4871 -0.0742,-0.9793 -0.031,-1.4768 0.0432,-0.4976 0.084,-0.9674 0.1224,-1.4096 0.2854,-2.0565 0.694,-4.032 1.2331,-5.9259 0.5398,-1.896 1.4003,-3.575 2.5966,-5.0302 1.6311,-1.5084 3.5049,-2.5876 5.6404,-3.2078 2.1369,-0.6205 4.3845,-0.4524 6.7451,0.535 0.7187,0.3006 1.4021,0.679 2.0533,1.1295 0.6514,0.4506 1.3228,0.9455 2.0192,1.4774 0.7788,0.8028 1.4097,1.7007 1.9046,2.6839 0.4955,0.9842 0.9098,1.911 1.2553,2.7746 0.0811,0.2732 0.1889,0.5297 0.3263,0.7682 0.1375,0.2386 0.2452,0.4954 0.3261,0.7691 0.4263,1.1403 0.9553,2.2444 1.5989,3.3071 0.6444,1.0639 1.4701,1.8293 2.4856,2.2883 0.4063,0.1837 0.8459,0.2934 1.3192,0.3282 0.4733,0.0348 0.9744,0.0512 1.5036,0.0516 3.085,-4.4003 5.6454,-9.7125 7.7392,-15.8963 2.1017,-6.2073 3.4941,-12.8885 4.1928,-20.0189 0.7331,-7.4811 0.5334,-15.1461 -0.6526,-22.9589 -1.1802,-7.7754 -3.5247,-15.092 -7.1276,-21.8682 -2.3064,-4.1853 -5.0652,-7.4745 -8.2759,-9.8493 -3.2025,-2.3686 -6.7793,-4.1063 -10.7144,-5.2161 -0.6383,-0.18 -1.2768,-0.3591 -1.9154,-0.5372 -0.6385,-0.1781 -1.2825,-0.2997 -1.9315,-0.3649 -6.7105,-1.8529 -12.6556,-1.3223 -17.808,1.3857 -5.1356,2.6992 -9.166,6.7102 -12.1147,12.0221 -2.5848,5.0466 -4.6106,10.4587 -6.1047,16.2385 -1.4889,5.7604 -2.467,11.7395 -2.9531,17.948 -0.0494,0.6314 -0.0968,1.2364 -0.1421,1.8152 -0.0453,0.5788 -0.0885,1.1312 -0.1297,1.6574 -0.4898,10.4229 0.4246,21.1051 2.7015,32.1334 2.2987,11.1342 5.8701,21.9146 10.6796,32.4331 -0.005,0.0543 -0.009,0.1086 -0.0136,0.1628 2.1913,4.2936 4.9887,8.3039 8.3998,12.0427 3.4236,3.7525 7.0146,6.7322 10.8054,8.9088 0.3913,0.3177 0.7622,0.5671 1.1132,0.7475 z m -285.451,-81.95 c 6.8743,0.1459 13.4593,-0.2092 19.7617,-1.2057 6.2866,-0.9939 11.4285,-3.1096 15.3924,-6.4856 4.0952,-3.4453 7.4954,-7.141 10.2352,-11.0395 2.7561,-3.9216 4.8073,-7.9705 6.2097,-12.0967 0.6753,-1.6649 1.1785,-3.3756 1.5223,-5.1259 0.3441,-1.752 0.572,-3.4747 0.688,-5.1657 0.3109,-4.532 -0.256,-8.9925 -1.7369,-13.3356 -1.4672,-4.3031 -3.8011,-8.3095 -7.0821,-11.9149 -3.4988,-2.9534 -8.3532,-5.035 -14.5487,-6.1018 -6.1643,-1.0614 -12.986,-1.0308 -20.4254,0.033 -1.2035,0.1721 -2.4641,0.385 -3.7815,0.6391 -1.3178,0.2541 -2.6347,0.5109 -3.9517,0.771 -0.6552,0.1003 -1.312,0.2163 -1.9702,0.3479 -0.6584,0.1316 -1.3177,0.2786 -1.9783,0.4409 -4.0692,0.933 -8.0067,2.2313 -11.8194,3.8619 -3.8145,1.6313 -6.7057,3.6496 -8.6902,6.0298 -0.4939,0.5802 -0.9332,1.1507 -1.3189,1.7109 -0.3854,0.5599 -0.6106,1.1196 -0.6751,1.6797 -0.0129,0.1121 -0.0258,0.2241 -0.0387,0.3361 -0.0129,0.112 0.0288,0.2151 0.1253,0.309 -0.0129,0.1121 10e-4,0.2197 0.0433,0.3227 0.0418,0.1031 0.1108,0.2019 0.2073,0.2961 0.5482,0.8472 1.0647,1.7181 1.5557,2.6087 0.4925,0.8934 1.0079,1.802 1.553,2.7224 1.4683,2.4119 2.8313,4.9829 4.115,7.6968 1.2942,2.736 2.1617,5.5451 2.6297,8.4055 0.2184,1.0645 0.3497,2.1529 0.3988,3.2636 0.0492,1.1116 0.0156,2.2161 -0.0992,3.3128 -0.4437,3.1821 -1.6257,6.3416 -3.5718,9.4536 -1.9399,3.1022 -5.1848,6.1064 -9.7437,8.9992 -0.7235,0.4893 -1.2508,0.9673 -1.5828,1.4328 -0.3318,0.4653 -0.5266,0.9504 -0.5844,1.4554 -0.006,0.0561 -0.0129,0.1122 -0.0193,0.1683 -0.006,0.0561 -0.0161,0.1403 -0.0289,0.2525 0.01,0.8918 0.5837,1.7403 1.7199,2.5552 1.1411,0.8185 2.7567,1.3872 4.8513,1.7198 -0.003,0.0285 -0.006,0.0569 -0.009,0.0854 3.4435,0.3491 7.092,0.6716 10.9458,0.9744 3.8577,0.3032 7.7577,0.5032 11.7022,0.5869 z m 338.545,111.3471 c 1.0742,0.6201 2.1502,1.2114 3.2293,1.7735 1.0786,0.5619 2.1048,1.1273 3.0785,1.6957 0.597,0.2191 1.1632,0.4853 1.6983,0.7985 0.5353,0.3132 1.0457,0.6125 1.5318,0.8977 1.6661,0.8478 3.2815,1.6697 4.8475,2.4648 1.566,0.795 3.075,1.6252 4.5279,2.4905 0.1936,0.1153 0.4356,0.2595 0.726,0.4327 0.2904,0.1732 0.5808,0.3466 0.8712,0.52 -0.007,0.0618 -0.0137,0.1237 -0.0206,0.1855 1.1886,0.4464 2.1485,0.6249 2.8807,0.534 0.7322,-0.0909 1.3814,-0.365 1.9481,-0.8213 0.1246,-0.1908 0.2697,-0.3361 0.4357,-0.4359 0.1659,-0.0998 0.3596,-0.2163 0.5808,-0.3496 1.5785,-1.1824 2.9831,-2.6747 4.2183,-4.4712 1.2373,-1.7998 2.134,-3.8049 2.6944,-6.0105 0.1396,-0.3184 0.234,-0.6968 0.2837,-1.1347 0.0496,-0.4379 0.0957,-0.8445 0.1382,-1.2199 0.1419,-1.2511 0.1593,-2.5414 0.0506,-3.8704 -0.1087,-1.3284 -0.3411,-2.6952 -0.7015,-4.0988 -0.4166,-0.903 -0.9222,-1.6918 -1.5212,-2.3641 -0.5987,-0.672 -1.2874,-1.2301 -2.0678,-1.6718 -0.3905,-0.221 -0.7877,-0.38 -1.192,-0.4764 -0.4043,-0.0965 -0.7597,-0.1652 -1.0664,-0.2065 -0.4182,0.0275 -0.8365,0.0555 -1.2548,0.0829 -0.4183,0.0273 -0.8431,0.1174 -1.2753,0.2681 -0.4458,0.2744 -0.922,0.5981 -1.4306,0.9678 -0.5082,0.3695 -0.9908,0.7539 -1.4502,1.1501 -1.238,0.8726 -2.5302,1.5502 -3.88,2.0258 -1.349,0.4753 -2.755,0.2956 -4.2222,-0.5328 -0.3912,-0.2208 -0.821,-0.5616 -1.2909,-1.0206 -0.4698,-0.4588 -0.9355,-0.9486 -1.3993,-1.4671 -0.4506,-0.6405 -0.786,-1.3788 -1.0087,-2.2138 -0.2226,-0.8345 -0.2877,-1.6783 -0.1961,-2.5317 0.1769,-0.6772 0.3745,-1.3106 0.5942,-1.9 0.2198,-0.5895 0.5518,-1.0208 0.9977,-1.2924 0.7538,-0.2314 1.5855,-0.2281 2.4961,0.0139 0.9102,0.2419 1.8692,0.5116 2.8774,0.8086 0,0 0.0244,0.0136 0.0735,0.0407 0.049,0.0271 0.1226,0.0679 0.2206,0.1221 1.7075,0.554 3.2556,0.8922 4.6459,1.0116 1.3898,0.1193 2.2567,-0.9079 2.6014,-3.0801 0.0411,-0.3712 0.0822,-0.7423 0.1233,-1.1134 0.0411,-0.3712 0.1311,-0.7153 0.2704,-1.0323 0.0138,-0.1238 0.0274,-0.2475 0.0411,-0.3712 0.0137,-0.1238 0.0274,-0.2475 0.0412,-0.3712 0.0274,-0.2475 0.0548,-0.4949 0.0822,-0.7424 0.0274,-0.2474 0.0548,-0.4949 0.0822,-0.7424 0.1507,-1.361 0.1238,-2.754 -0.0845,-4.1778 -0.208,-1.4228 -0.8864,-2.578 -2.0424,-3.4587 -0.4076,-0.0883 -0.7836,-0.2252 -1.1286,-0.4099 -0.3449,-0.1845 -0.7142,-0.383 -1.1088,-0.5937 -1.5781,-0.8424 -2.9451,-1.9305 -4.1096,-3.2557 -1.1637,-1.3242 -2.0453,-3.0496 -2.657,-5.1714 -0.1462,-0.5911 -0.2417,-1.1565 -0.2887,-1.6959 -0.0471,-0.5394 -0.0374,-1.114 0.0281,-1.7239 0.1705,-1.586 0.7769,-2.8535 1.8238,-3.7994 1.0482,-0.9472 2.2287,-1.2182 3.5462,-0.8035 0.3112,0.0299 0.6157,0.1211 0.9138,0.2736 0.298,0.1524 0.5457,0.28 0.7442,0.3817 1.6875,0.8649 3.0228,2.2755 4.013,4.2238 0.9915,1.951 1.8349,3.9698 2.5459,6.0486 0.1702,0.3521 0.3143,0.6919 0.435,1.0182 0.1207,0.3264 0.2157,0.6401 0.287,0.9405 0.639,1.7844 1.316,3.4014 2.0416,4.8458 0.7266,1.446 1.6748,2.4931 2.852,3.1358 0.4908,0.2679 1.016,0.4568 1.5763,0.5653 0.5601,0.1084 1.1623,0.0737 1.807,-0.1029 2.6483,-0.4028 4.5415,-2.4309 5.6881,-6.0731 1.1482,-3.6471 2.1187,-7.5944 2.9189,-11.8382 0.4568,-2.1595 0.9087,-4.2887 1.359,-6.3869 0.4504,-2.099 1.0291,-3.9648 1.7408,-5.5963 0.5601,-3.047 1.0672,-6.3224 1.5227,-9.8254 0.4557,-3.5033 0.8936,-7.0824 1.3141,-10.7371 0.029,-0.252 0.0616,-0.5356 0.0979,-0.8506 0.0362,-0.3151 0.0689,-0.5986 0.0979,-0.8507 0.8137,-7.9881 1.1872,-15.7882 1.1067,-23.3917 -0.0805,-7.5902 -1.244,-13.5503 -3.5216,-17.8551 -2.1828,-4.1195 -5.4217,-7.6933 -9.7351,-10.6723 -4.3058,-2.9737 -8.9834,-5.4563 -14.0216,-7.4422 -0.1028,-0.0405 -0.2312,-0.0912 -0.3855,-0.1519 -0.1544,-0.0607 -0.283,-0.1113 -0.3859,-0.1517 -5.4653,-2.0201 -10.752,-3.3897 -15.8372,-4.1489 -5.0909,-0.76 -8.9165,-0.77 -11.4659,-0.0875 -3.0013,0.8884 -5.4581,2.3035 -7.3777,4.2333 -1.915,1.9252 -3.0488,4.6974 -3.4039,8.3208 -0.0458,0.4675 -0.0887,0.9058 -0.1288,1.3149 -0.0401,0.4091 -0.083,0.8474 -0.1288,1.3149 -0.5955,6.0779 -0.3699,12.2607 0.6685,18.5688 1.0426,6.3333 2.1892,12.6623 3.4741,18.9846 0.1457,0.6778 0.2888,1.3566 0.4341,2.0353 0.1454,0.679 0.2882,1.3589 0.4331,2.0387 1.1384,5.6863 2.0594,11.3803 2.8056,17.0694 0.7484,5.7062 0.8327,11.2487 0.2849,16.6106 -0.28,2.7405 -0.7925,5.4587 -1.5414,8.1509 -0.7481,2.689 -1.7655,5.2679 -3.067,7.727 -0.3718,0.5585 -0.7385,1.0883 -1.1039,1.5865 -0.3653,0.4979 -0.7314,1.0265 -1.1026,1.5827 -1.4462,1.8663 -2.7662,3.8542 -3.9731,5.9559 -1.2041,2.0967 -1.9443,4.5568 -2.2255,7.3824 -0.0703,0.7064 -0.0912,1.4394 -0.0624,2.1991 0.0288,0.76 0.0572,1.5201 0.0858,2.2804 2.1391,4.7651 4.9126,8.677 8.3364,11.7364 3.4289,3.0639 7.0892,5.73 10.9944,7.9845 z m -160.779,-74.2252 c 0.2123,0.0768 0.3979,0.144 0.557,0.2018 0.1592,0.0577 0.3446,0.125 0.5566,0.2021 3.2863,1.1951 6.4573,1.928 9.5231,2.1673 3.0631,0.2391 5.6566,-0.2058 7.7796,-1.3533 4.0799,-4.3449 7.3586,-9.3718 9.8985,-15.0108 2.5593,-5.6824 4.9383,-11.5796 7.2022,-17.6598 0.1336,-0.359 0.2654,-0.7187 0.3991,-1.078 0.1337,-0.3593 0.2622,-0.6704 0.3891,-0.9317 1.0514,-2.5864 2.0596,-5.1714 3.0559,-7.7421 0.9992,-2.578 2.0613,-5.1225 3.2188,-7.6207 0.128,-0.2671 0.334,-0.5128 0.622,-0.7334 0.2882,-0.2208 0.5409,-0.3525 0.761,-0.3904 0.3338,-0.1064 0.6561,-0.0645 0.969,0.1267 0.313,0.1913 0.4475,0.588 0.4051,1.1872 0,0 -0.003,0.05 -0.0106,0.1498 -1.2628,8.5911 -3.0933,16.795 -5.544,24.5702 -2.4337,7.7213 -5.4047,14.86 -8.9924,21.3579 -0.1251,0.2532 -0.225,0.541 -0.3008,0.8628 -0.0758,0.3218 -0.1268,0.6781 -0.1533,1.0687 -0.0199,0.2929 -0.0153,0.6204 0.014,0.9824 0.0293,0.362 0.0861,0.71 0.1711,1.0436 0.2942,2.0206 1.1482,4.0898 2.5565,6.2191 1.4131,2.1366 3.1414,3.8384 5.193,5.1032 2.0534,1.2661 4.1043,2.496 6.1547,3.6866 2.0514,1.1912 4.1077,2.2431 6.1727,3.1503 3.0975,1.3608 6.0391,2.2014 8.8352,2.4946 2.7943,0.293 5.2679,-0.4227 7.4193,-2.1625 0.2626,-0.6417 0.4752,-1.3332 0.6393,-2.0741 0.1641,-0.741 0.2745,-1.479 0.3317,-2.2134 0.1633,-2.0984 0.0165,-4.2785 -0.4502,-6.5346 -0.466,-2.2518 -1.0814,-4.5655 -1.8651,-6.9331 -0.2554,-0.8573 -0.5334,-1.7253 -0.842,-2.6014 -0.3082,-0.8753 -0.5873,-1.7401 -0.8446,-2.5922 -1.1464,-3.2338 -2.1499,-6.4828 -3.0388,-9.7402 -0.8859,-3.2461 -1.2111,-6.4091 -0.9799,-9.4966 0.0155,-0.2059 0.0328,-0.4374 0.0521,-0.6948 0.0192,-0.2572 0.0366,-0.4888 0.052,-0.6946 0.0231,-0.3088 0.0702,-0.5826 0.1423,-0.8213 0.072,-0.2387 0.1153,-0.4611 0.1307,-0.667 0.5894,-4.9722 1.7141,-9.6377 3.4001,-14.0008 1.6935,-4.3825 3.4959,-8.7286 5.4563,-13.0207 0.3836,-0.7357 0.7357,-1.4829 1.0662,-2.2366 0.3309,-0.7544 0.6311,-1.5191 0.9088,-2.2909 1.7205,-3.8769 3.2389,-7.8607 4.594,-11.9324 1.3596,-4.085 2.2104,-8.4018 2.5666,-12.9346 0.1823,-2.3191 0.209,-4.7311 0.0762,-7.2336 -0.1326,-2.4997 -0.5272,-5.113 -1.1944,-7.8334 -1.8473,-2.9786 -4.0931,-5.196 -6.7335,-6.6406 -1.3184,-0.7212 -2.6745,-1.3314 -4.0673,-1.8313 -1.4275,-0.3956 -2.8563,-0.7859 -4.2862,-1.1706 0,0 -5e-4,-10e-5 -5e-4,-10e-5 -2.1587,-0.2073 -4.3185,-0.4066 -6.4795,-0.5979 -2.1417,-0.0853 -4.2064,-0.0986 -6.1933,-0.0435 -0.3336,0.0424 -0.6653,0.06 -0.9954,0.0528 -0.33,-0.007 -0.6619,0.0107 -0.9954,0.0535 -3.0433,0.9811 -5.2445,2.5754 -6.6106,4.7764 -1.3616,2.1937 -2.4522,4.5023 -3.2796,6.9253 -0.1355,0.3708 -0.2667,0.6928 -0.3955,0.9655 -0.1288,0.2726 -0.2567,0.5455 -0.3854,0.8178 -0.1619,0.7605 -0.3732,1.4619 -0.6372,2.103 -0.2639,0.6406 -0.5254,1.2816 -0.7892,1.9211 -0.2768,0.8338 -0.5225,1.6488 -0.7416,2.4436 -0.219,0.7943 -0.4073,1.5698 -0.5685,2.3257 -0.2829,0.9275 -0.5327,1.8121 -0.7547,2.6525 -0.2217,0.8398 -0.4677,1.6742 -0.7437,2.5012 -2.0169,7.1255 -4.1025,14.1195 -6.3188,20.9591 -2.202,6.7954 -4.9271,13.1875 -8.2795,19.1055 0,0 -0.0576,0.0561 -0.1741,0.1671 -0.1164,0.111 -0.233,0.2468 -0.3526,0.405 -0.2199,0.0328 -0.4411,0.0905 -0.6643,0.1703 -0.2231,0.0797 -0.4946,0.0739 -0.8155,-0.0176 -0.107,-0.0306 -0.1604,-0.046 -0.1604,-0.046 -1.3438,-1.1471 -2.2575,-2.5323 -2.7589,-4.1477 -0.5003,-1.6118 -0.6929,-3.2597 -0.5861,-4.944 0.0177,-0.2807 0.0355,-0.5614 0.0533,-0.8421 0.0178,-0.2807 0.0886,-0.5478 0.2145,-0.8004 0.0534,-0.8424 0.2129,-1.6578 0.4828,-2.4453 0.2701,-0.7881 0.5328,-1.5317 0.797,-2.2274 0.7094,-2.4933 1.7623,-5.0072 3.1872,-7.5345 1.4308,-2.5374 2.9273,-5.1767 4.5321,-7.8953 0.6171,-1.0194 1.2274,-2.07 1.8476,-3.1419 0.6212,-1.0737 1.236,-2.1782 1.8603,-3.3047 1.271,-2.5466 2.3932,-5.1635 3.3961,-7.8353 1.0059,-2.6795 1.5924,-5.3759 1.7722,-8.0779 0.2248,-3.3775 -0.3928,-6.7827 -1.8845,-10.1842 -1.4831,-3.3818 -4.2096,-6.6258 -8.2292,-9.631 -1.5154,-0.4829 -3.1177,-0.9219 -4.8064,-1.3156 -1.6882,-0.3935 -3.4083,-0.7353 -5.1596,-1.0261 -0.6833,-0.1236 -1.3668,-0.246 -2.0504,-0.3671 -0.6868,-0.0752 -1.3737,-0.1493 -2.0607,-0.2223 -2.0689,-0.0817 -4.1384,-0.1556 -6.2085,-0.2218 -2.0512,0.0721 -3.9784,0.3894 -5.7817,0.9407 -2.5785,0.5693 -4.6047,1.6807 -6.0869,3.3182 -1.4777,1.6328 -2.7131,3.4135 -3.7134,5.3398 -0.2561,0.59 -0.5092,1.1584 -0.7628,1.7035 -0.2534,0.5448 -0.5062,1.1117 -0.7623,1.6991 -0.068,0.482 -0.1355,0.964 -0.2035,1.4459 -0.0932,-1.1955 -0.1849,-2.3902 -0.2784,-3.5839 -0.2875,-1.2433 -0.7556,-2.4105 -1.4134,-3.4955 -1.3106,-2.1618 -3.527,-3.9357 -6.6645,-5.2677 -2.0533,-0.8265 -4.2799,-1.5628 -6.6797,-2.2005 -2.397,-0.6369 -4.9201,-1.0497 -7.5651,-1.2419 -0.8785,-0.1192 -1.7859,-0.2168 -2.7221,-0.2925 -0.9363,-0.0757 -1.8462,-0.1277 -2.7296,-0.1566 -3.0922,-0.1011 -5.9507,0.0712 -8.5734,0.4941 -2.6234,0.4229 -4.7416,1.2609 -6.3616,2.4922 -2.658,2.074 -4.5558,4.358 -5.6979,6.8612 -1.1381,2.4941 -1.7862,5.1322 -1.9455,7.9219 -0.1549,2.712 0.013,5.541 0.5116,8.493 0.5002,2.9618 1.0959,5.9649 1.8126,9.007 0,0 0.0251,0.0418 0.076,0.1249 0.051,0.0831 0.076,0.1249 0.076,0.1249 0.6218,2.8114 1.1743,5.5923 1.6868,8.335 0.5142,2.7516 0.7456,5.3995 0.7134,7.9349 0,0 -0.001,0.0197 -0.003,0.059 -0.002,0.0394 -0.006,0.0985 -0.01,0.1773 -0.005,0.0788 -0.008,0.1378 -0.0101,0.1772 -0.002,0.0394 -0.003,0.0591 -0.003,0.0591 -0.009,0.1576 -0.0179,0.3151 -0.0268,0.4727 -0.009,0.1575 -0.0179,0.3151 -0.0268,0.4727 -0.3195,1.7009 -1.0913,3.2186 -2.3359,4.5334 -1.2416,1.3114 -3.1277,1.8487 -5.6686,1.6356 -0.1101,-0.0159 -0.2476,-0.0363 -0.4128,-0.0601 -0.1652,-0.0239 -0.3579,-0.0523 -0.5782,-0.0838 -2.0927,-0.2996 -3.9112,-0.9466 -5.4716,-1.9153 -1.5562,-0.966 -2.5047,-2.2693 -2.8572,-3.9089 -0.0715,-0.6926 -0.1148,-1.3629 -0.133,-2.0108 -0.0183,-0.6477 -0.009,-1.2734 0.0258,-1.8772 0.1537,-2.6414 0.6622,-5.2306 1.5341,-7.7711 0.8744,-2.5479 1.819,-5.1215 2.8587,-7.7132 0.2705,-0.8208 0.5656,-1.6608 0.8934,-2.5175 0.3281,-0.8576 0.6233,-1.7006 0.8934,-2.526 0.6566,-1.7223 1.1946,-3.4583 1.6284,-5.2017 0.4344,-1.7459 0.6995,-3.5031 0.8008,-5.2682 0.1323,-2.3022 -0.0899,-4.6351 -0.6768,-6.9895 -0.5847,-2.346 -1.7352,-4.752 -3.4813,-7.1843 -1.2274,-1.6616 -3.4208,-2.8572 -6.5836,-3.5403 -3.1571,-0.6818 -6.5575,-1.0233 -10.1931,-1.0311 -0.4371,-0.056 -0.9318,-0.073 -1.4839,-0.0509 -0.5521,0.0222 -1.0491,0.0428 -1.4906,0.0614 -2.7601,0.1167 -5.2792,0.3652 -7.5567,0.7309 -2.278,0.3658 -4.0344,0.7634 -5.2704,1.1822 -2.5913,0.9837 -4.7532,2.1487 -6.4921,3.4838 -1.736,1.333 -3.2049,2.7802 -4.4126,4.3383 -0.5201,1.1796 -0.9264,2.318 -1.2219,3.4149 -0.2952,1.0959 -0.477,2.1523 -0.5464,3.1697 -0.2638,3.866 0.6511,7.4706 2.7441,10.8513 2.1154,3.4168 4.367,6.8385 6.8075,10.2383 2.5755,3.5112 4.8758,7.1609 6.9791,10.8847 2.1254,3.7626 3.0265,7.7605 2.7695,11.9179 -0.0754,1.2185 -0.2593,2.4072 -0.5555,3.5643 -0.2958,1.1559 -0.7573,2.3464 -1.3946,3.5656 -0.276,0.8297 -0.7132,1.6043 -1.3189,2.3183 -0.6049,0.7131 -1.2625,1.4205 -1.9796,2.1154 0,0 -0.0289,0.0143 -0.0867,0.0427 -0.0579,0.0284 -0.089,0.0781 -0.0934,0.1489 -0.8455,0.9625 -1.6603,1.9281 -2.4522,2.8908 -0.7905,0.961 -1.2212,2.0031 -1.293,3.1273 -0.0314,0.4919 0.0204,0.9954 0.1563,1.5106 0.1359,0.5157 0.3543,1.0442 0.6571,1.5851 2.123,2.0894 4.8516,3.7198 8.1977,4.9057 3.3531,1.1884 6.8492,2.1788 10.4962,2.9569 0.4425,0.0854 0.9127,0.1768 1.4104,0.2741 0.4977,0.0974 1.023,0.201 1.5756,0.3108 0.6632,0.1316 1.2985,0.2593 1.9061,0.3821 0.6076,0.1228 1.1872,0.2413 1.7391,0.3546 0.5563,0.0384 1.1104,0.115 1.662,0.2298 0.5515,0.1149 1.1029,0.2308 1.6542,0.3473 -0.002,0.0379 -0.004,0.0757 -0.007,0.1135 1.7683,0.2977 3.5318,0.6603 5.2899,1.0882 1.7585,0.4281 3.4606,0.8342 5.1076,1.2146 1.6471,0.3804 3.2912,0.7881 4.9328,1.2222 1.6413,0.4341 3.2821,0.8568 4.9223,1.2657 4.0459,1.0089 7.9802,1.8547 11.8103,2.5122 3.8269,0.6569 7.6152,0.8966 11.3709,0.6797 0.6787,-0.3198 1.2469,-0.6518 1.7065,-0.9928 0.4598,-0.3413 0.8633,-0.6787 1.2123,-1.0098 0.241,-0.3619 0.4282,-0.7611 0.5632,-1.1964 0.1351,-0.4356 0.2168,-0.9077 0.2458,-1.416 0.0678,-1.1859 -0.1852,-2.4819 -0.7681,-3.8812 -0.5814,-1.3956 -1.2104,-2.8245 -1.9019,-4.279 -0.5953,-1.1716 -1.1558,-2.3773 -1.6946,-3.611 -0.5377,-1.2308 -0.8271,-2.4019 -0.8748,-3.5133 -0.456,-1.7108 -0.7439,-3.3816 -0.8734,-5.0129 -0.1292,-1.6295 -0.1521,-3.1512 -0.0718,-4.5662 0.203,-3.5791 1.021,-6.8942 2.4682,-9.9516 1.4539,-3.0717 3.126,-6.067 5.061,-8.9654 0.722,-0.985 1.4068,-1.9845 2.0733,-2.9849 0.6678,-1.0023 1.3556,-2.0517 2.0824,-3.1361 2.6544,-3.6227 5.0623,-7.5373 7.2925,-11.6946 1.1207,-2.089 2.0423,-4.3337 2.7905,-6.7201 0.5216,-2.3415 1.0379,-4.6881 1.5595,-7.0376 0.0639,2.2055 0.1247,4.413 0.1881,6.6224 0.2581,2.2345 0.7008,4.4796 1.3435,6.7352 1.2917,4.5333 2.6604,9.0398 4.161,13.5059 0.5583,1.8051 1.1302,3.6032 1.7421,5.3863 0.6136,1.7881 1.1854,3.5592 1.7433,5.3036 0.7196,2.7813 1.283,5.5476 1.7246,8.2883 0.4427,2.7477 0.577,5.431 0.4198,8.0419 -0.179,2.9709 -0.8383,5.8605 -1.9972,8.6517 -1.1547,2.7807 -2.9907,5.4124 -5.5535,7.8447 -0.1237,0.2353 -0.301,0.4784 -0.5351,0.7267 -0.234,0.2481 -0.4139,0.5348 -0.5429,0.8579 -0.9509,1.2545 -1.8212,2.6419 -2.6243,4.1542 -0.8011,1.5085 -1.2486,3.0968 -1.3467,4.7665 -0.0413,0.703 -0.002,1.4309 0.1177,2.184 0.1201,0.7536 0.3733,1.5502 0.761,2.39 -0.003,0.0441 -0.005,0.0881 -0.008,0.1322 2.0482,2.4471 4.6646,4.7523 7.8497,6.9343 3.1946,2.1886 6.531,3.9718 10.0255,5.33 z"
         id="path3927"
         inkscape:connector-curvature="0"
         style="clip-rule:evenodd" />
    </clipPath>
    <clipPath
       clipPathUnits="userSpaceOnUse"
       id="clipPath3935">
      <path
         d="M 0,0 H 960 V 540 H 0 Z"
         id="path3933"
         inkscape:connector-curvature="0" />
    </clipPath>
    <clipPath
       clipPathUnits="userSpaceOnUse"
       id="clipPath3973">
      <path
         d="M 0,0 H 960 V 540 H 0 Z"
         id="path3971"
         inkscape:connector-curvature="0" />
    </clipPath>
    <linearGradient
       gradientTransform="matrix(0.99754841,0.07271953,-0.06997976,1.0366033,17.12542,-22.2982)"
       gradientUnits="userSpaceOnUse"
       y2="172.9406"
       x2="356.70923"
       y1="155.40811"
       x1="219.98204"
       id="linearGradient4900"
       xlink:href="#linearGradient4906"
       inkscape:collect="always" />
  </defs>
  <metadata
     id="metadata5">
    <rdf:RDF>
      <cc:Work
         rdf:about="">
        <dc:format>image/svg+xml</dc:format>
        <dc:type
           rdf:resource="http://purl.org/dc/dcmitype/StillImage" />
        <dc:title />
      </cc:Work>
    </rdf:RDF>
  </metadata>
  <g
     id="layer1"
     inkscape:groupmode="layer"
     inkscape:label="original"
     transform="translate(-14.719542,-124.93878)"
     sodipodi:insensitive="true">
    <g
       transform="matrix(0.35277777,0,0,-0.35277777,28.726199,254.66666)"
       id="g3899" />
    <rect
       style="fill:#000000;fill-opacity:0.98029552;stroke:none;stroke-width:0.25478038;stroke-miterlimit:4;stroke-dasharray:none;stroke-opacity:1"
       id="rect5335"
       width="361.94528"
       height="98.521355"
       x="14.719542"
       y="124.93878" />
    <path
       d="m 230.08526,175.82755 c -0.15762,0.0134 -0.33486,0.0311 -0.5318,0.0523 -0.19689,0.0213 -0.39298,0.0708 -0.58889,0.14675 0.0459,0.33795 0.082,0.6922 0.10857,1.06261 0.0267,0.37047 0.0631,0.74743 0.10951,1.1309 0.004,0.24615 0.0184,0.48755 0.0429,0.72416 0.024,0.2367 0.038,0.46701 0.0422,0.69086 0.0896,0.58925 0.18779,1.17456 0.29629,1.75573 0.10859,0.58178 0.26453,1.15287 0.46967,1.71305 0.0392,0.003 0.088,0.0148 0.14683,0.0327 0.0588,0.0176 0.10775,0.0284 0.14681,0.0325 0.0395,0.0266 0.0885,0.0431 0.1471,0.0495 0.0585,0.006 0.10751,0.0108 0.14656,0.0157 0.39056,0.0189 0.7313,-0.0267 1.02267,-0.13341 0.29185,-0.10689 0.55329,-0.23168 0.78615,-0.36945 0.0389,-0.0191 0.0678,-0.0452 0.0869,-0.0776 0.0192,-0.0325 0.0481,-0.0585 0.0869,-0.0778 0.38825,-0.35377 0.65547,-0.74085 0.80771,-1.1538 0.15261,-0.41392 0.22534,-0.84058 0.22019,-1.27841 -0.005,-0.46087 -0.079,-0.91453 -0.22264,-1.35993 -0.14339,-0.44477 -0.31516,-0.86796 -0.51789,-1.26825 -1.6e-4,-0.0114 -8e-5,-0.023 -6.3e-4,-0.0345 -0.0799,-0.0728 -0.16951,-0.15785 -0.26946,-0.25449 -0.0999,-0.0966 -0.20953,-0.19393 -0.32925,-0.2914 -0.27987,-0.26535 -0.60869,-0.51049 -0.98712,-0.73454 -0.37844,-0.22402 -0.78507,-0.34721 -1.21958,-0.37276 z m 33.49033,-2.28249 c -0.82595,0.27743 -1.38861,0.68367 -1.69058,1.22258 -0.30091,0.53699 -0.4735,1.08631 -0.51953,1.64876 1.6e-4,0.0279 -0.002,0.0558 -5e-4,0.0839 1.6e-4,0.0279 -0.002,0.0558 -5.1e-4,0.0838 0.0389,0.0239 0.0876,0.0399 0.14643,0.0479 0.0587,0.008 0.10767,0.009 0.14695,0.005 0.0782,0.0198 0.16623,0.0318 0.26419,0.0357 0.0981,0.004 0.20574,-9.7e-4 0.32349,-0.0125 0.15691,-0.0164 0.31392,-0.0475 0.47126,-0.0923 0.15733,-0.0449 0.31443,-0.0907 0.4717,-0.13606 0.0785,-0.008 0.15688,-0.0245 0.23553,-0.0474 0.0787,-0.0228 0.15707,-0.0391 0.23549,-0.0477 0.11806,-0.0415 0.23575,-0.0695 0.35338,-0.0829 0.11764,-0.0136 0.23519,-0.0272 0.35276,-0.0411 0.19596,-0.0228 0.39167,-0.032 0.58723,-0.0267 0.19555,0.005 0.37076,0.0557 0.52609,0.15132 0.23591,-0.0854 0.38352,-0.19781 0.44412,-0.3346 0.0607,-0.13692 0.0917,-0.29205 0.0939,-0.46497 0.002,-0.0577 10e-4,-0.11523 0.003,-0.17287 0.002,-0.0577 10e-4,-0.11524 0.003,-0.17284 -0.0384,-0.0526 -0.0571,-0.11479 -0.0564,-0.18678 9.9e-4,-0.072 0.002,-0.13677 0.003,-0.19444 -2.1e-4,-0.0288 0.002,-0.0577 3.9e-4,-0.0865 -2.1e-4,-0.0288 0.002,-0.0577 3.8e-4,-0.0866 -2e-4,-0.0288 0.0104,-0.0589 0.0305,-0.0904 0.0201,-0.0315 0.0301,-0.0617 0.0305,-0.0905 1.5e-4,-0.0143 -2e-4,-0.0288 10e-4,-0.0431 -0.15261,-0.32398 -0.44222,-0.57183 -0.87061,-0.74122 -0.42849,-0.16944 -0.89743,-0.2185 -1.40764,-0.1512 -0.0393,0.006 -0.0688,0.009 -0.0884,0.0112 -0.0196,0.002 -0.0491,0.007 -0.0884,0.0112 z m 65.63712,-24.68407 c 0.12792,-0.0568 0.24661,-0.10994 0.35617,-0.15885 1.13324,-0.46424 2.22208,-0.72677 3.26928,-0.77876 1.04665,-0.0525 1.981,0.20462 2.80255,0.77331 0.52617,0.44775 0.91655,1.04632 1.17433,1.79204 0.25828,0.74709 0.43412,1.55364 0.52965,2.41825 0.003,0.0855 0.005,0.18151 0.007,0.28828 0.002,0.1068 0.005,0.22421 0.009,0.35234 0.003,0.0854 0.004,0.17084 0.007,0.25624 0.003,0.0854 0.004,0.17084 0.007,0.25622 -0.0343,0.10122 -0.0504,0.19452 -0.0483,0.27991 0.003,0.0854 0.004,0.17082 0.007,0.25618 -0.19813,0.94753 -0.52674,1.76797 -0.99237,2.45636 -0.46471,0.68706 -1.02109,1.33769 -1.6759,1.94439 -0.0367,0.015 -0.0915,0.048 -0.16449,0.0989 -0.0731,0.0508 -0.12779,0.084 -0.16456,0.0988 -0.0734,0.0297 -0.13779,0.056 -0.19292,0.0782 -0.0551,0.0222 -0.11945,0.0485 -0.19296,0.078 -0.69852,0.28199 -1.32767,0.35366 -1.88755,0.22024 -0.55969,-0.13342 -0.92058,-0.56676 -1.08428,-1.2982 -0.001,-0.0417 -9.1e-4,-0.0935 -0.003,-0.15604 -6e-4,-0.0622 -0.003,-0.11441 -0.003,-0.15604 -10e-4,-0.0832 -0.003,-0.17684 -0.006,-0.28088 -0.002,-0.10396 -0.004,-0.19764 -0.006,-0.28086 -0.0151,-0.74901 -0.11184,-1.44307 -0.29167,-2.08106 -0.17959,-0.63712 -0.60181,-0.96214 -1.26805,-0.9738 -0.77056,0.36459 -1.42408,0.99014 -1.96698,1.87191 -0.54145,0.87943 -0.87917,1.75523 -1.01404,2.63001 -0.1374,0.71056 -0.26421,1.43722 -0.38316,2.1795 -0.11884,0.7415 -0.19018,1.48526 -0.21581,2.23146 -0.0347,0.17648 -0.0504,0.35622 -0.0473,0.53928 0.003,0.18305 0.006,0.35591 0.008,0.51862 0.0496,0.75935 0.14463,1.49225 0.28763,2.19865 0.14319,0.70721 0.40458,1.34328 0.78966,1.90613 0.53676,0.59345 1.16949,1.03617 1.90571,1.31776 0.73667,0.28174 1.53179,0.27793 2.3869,-0.0226 0.26031,-0.0914 0.51017,-0.21231 0.75046,-0.36034 0.24034,-0.14805 0.48884,-0.31183 0.74704,-0.48848 0.29392,-0.2736 0.53812,-0.58577 0.73653,-0.93261 0.19866,-0.34718 0.36734,-0.67548 0.51022,-0.98243 0.0353,-0.0978 0.0796,-0.18887 0.13383,-0.27255 0.0543,-0.0838 0.0985,-0.17488 0.13375,-0.2729 0.17816,-0.40608 0.39157,-0.79626 0.64428,-1.16837 0.25307,-0.37252 0.56252,-0.63123 0.93125,-0.77303 0.14752,-0.0568 0.3049,-0.0855 0.47233,-0.0863 0.1674,-0.001 0.34412,0.006 0.53043,0.0198 0.977,1.68823 1.74691,3.69657 2.33106,6.01164 0.58637,2.32387 0.91143,4.80283 0.98131,7.42829 0.0733,2.75457 -0.18624,5.55245 -0.79645,8.37911 -0.60731,2.81309 -1.61298,5.42859 -3.04818,7.81415 -0.91501,1.47138 -1.96703,2.60341 -3.15556,3.38946 -1.18545,0.78405 -2.48707,1.32777 -3.89929,1.6326 -0.22908,0.0495 -0.45817,0.0986 -0.68731,0.14735 -0.2291,0.0487 -0.45874,0.0767 -0.68872,0.084 -2.40727,0.50543 -4.48634,0.15894 -6.23268,-0.96355 -1.74064,-1.11885 -3.05994,-2.68903 -3.96653,-4.70719 -0.78504,-1.91181 -1.36431,-3.94293 -1.7474,-6.09488 -0.38179,-2.14471 -0.57837,-4.35631 -0.59616,-6.63918 -0.002,-0.23214 -0.003,-0.45462 -0.005,-0.66745 -0.002,-0.2128 -0.003,-0.41594 -0.005,-0.60941 0.0849,-3.82411 0.67049,-7.70706 1.74398,-11.68159 1.08385,-4.01269 2.60677,-7.86338 4.55898,-11.58652 -2.1e-4,-0.0199 -6.7e-4,-0.0399 -5e-4,-0.0598 0.87713,-1.51389 1.96059,-2.90867 3.25327,-4.1884 1.29746,-1.28443 2.63478,-2.28195 4.02251,-2.98065 0.14556,-0.10621 0.28221,-0.18784 0.41021,-0.24482 z M 226.7357,171.50645 c 2.42275,0.12292 4.73134,0.42178 6.92462,0.94785 2.18781,0.52476 3.9451,1.43036 5.25671,2.76661 1.35607,1.36495 2.46141,2.80368 3.32932,4.29961 0.87309,1.50481 1.49502,3.03807 1.88667,4.58294 0.19654,0.62617 0.33139,1.26467 0.40915,1.91356 0.0779,0.64952 0.11547,1.28533 0.11461,1.90671 -0.002,1.6653 -0.31208,3.28188 -0.94047,4.83214 -0.62257,1.53598 -1.54279,2.94118 -2.78642,4.17551 -1.30418,0.99027 -3.06391,1.62691 -5.27052,1.85809 -2.19551,0.23002 -4.59539,0.0438 -7.18714,-0.53601 -0.41926,-0.0937 -0.85764,-0.20402 -1.31499,-0.33069 -0.45747,-0.1268 -0.91458,-0.25446 -1.37161,-0.38335 -0.22811,-0.0535 -0.45638,-0.11274 -0.68474,-0.17777 -0.22845,-0.065 -0.45685,-0.13571 -0.68534,-0.21201 -1.40896,-0.44555 -2.76254,-1.02134 -4.06406,-1.71545 -1.3021,-0.69443 -2.26969,-1.50665 -2.90932,-2.42799 -0.15949,-0.22485 -0.3,-0.44471 -0.42189,-0.65946 -0.12182,-0.21466 -0.18723,-0.42512 -0.1961,-0.63163 -0.002,-0.0413 -0.004,-0.0825 -0.005,-0.12387 -0.002,-0.0412 0.0155,-0.0779 0.0518,-0.10978 -0.002,-0.0413 0.007,-0.0804 0.0232,-0.11692 0.0172,-0.0367 0.044,-0.0711 0.0803,-0.10298 0.21383,-0.29572 0.41706,-0.60094 0.61186,-0.91406 0.19535,-0.31404 0.39919,-0.6331 0.61374,-0.95568 0.57623,-0.84439 1.11936,-1.74961 1.63814,-2.70914 0.52299,-0.96731 0.89761,-1.97229 1.13291,-3.00632 0.10317,-0.38366 0.17621,-0.77831 0.22092,-1.18324 0.0447,-0.40522 0.0607,-0.80996 0.0464,-1.21401 -0.0776,-1.17504 -0.41556,-2.36077 -1.02358,-3.54874 -0.6061,-1.18421 -1.67384,-2.36604 -3.20676,-3.54085 -0.24253,-0.19754 -0.41632,-0.38584 -0.52163,-0.5646 -0.10526,-0.17867 -0.16186,-0.36107 -0.16975,-0.5472 -1.8e-4,-0.0206 -0.002,-0.0414 -0.003,-0.0621 -1.7e-4,-0.0207 -0.003,-0.0517 -0.004,-0.0931 0.025,-0.32592 0.24837,-0.62145 0.66833,-0.89033 0.42178,-0.26999 1.00439,-0.43655 1.7497,-0.50443 -2.9e-4,-0.0105 -1.7e-4,-0.0209 -7.5e-4,-0.0315 1.22041,-0.0394 2.51234,-0.0636 3.87601,-0.0755 1.36506,-0.0119 2.74244,0.0151 4.13265,0.0856 z m 121.8872,-32.03361 c 0.39338,-0.19921 0.78658,-0.38783 1.18022,-0.56572 0.39346,-0.1778 0.76853,-0.35825 1.12523,-0.54111 0.21552,-0.0647 0.42132,-0.14763 0.6174,-0.24844 0.1961,-0.1008 0.38307,-0.19718 0.56119,-0.28901 0.60728,-0.26727 1.19605,-0.52638 1.76676,-0.77696 0.57071,-0.25058 1.12222,-0.51546 1.65489,-0.79461 0.0709,-0.0372 0.15971,-0.0838 0.26618,-0.13962 0.10646,-0.0559 0.21293,-0.11186 0.3194,-0.16778 -9e-5,-0.0228 -0.002,-0.0456 -0.002,-0.0685 0.42929,-0.13274 0.77149,-0.17339 1.02693,-0.12133 0.25542,0.0521 0.47711,0.16891 0.66527,0.35032 0.0392,0.0729 0.0867,0.12983 0.14259,0.17057 0.056,0.0407 0.12119,0.0883 0.19577,0.14275 0.52629,0.47289 0.98374,1.05463 1.37405,1.7433 0.39102,0.6899 0.65708,1.44616 0.79985,2.26711 0.0413,0.12004 0.0652,0.26079 0.0718,0.42221 0.007,0.16141 0.0128,0.3113 0.0186,0.44965 0.019,0.46117 -0.007,0.93348 -0.0778,1.4167 -0.0711,0.48299 -0.18656,0.97684 -0.34806,1.48089 -0.16889,0.31951 -0.36631,0.59501 -0.5937,0.82548 -0.22728,0.23037 -0.4834,0.41684 -0.76894,0.55833 -0.14288,0.0709 -0.28661,0.11873 -0.43126,0.14365 -0.14466,0.0248 -0.27143,0.0409 -0.38036,0.0481 -0.14647,-0.0211 -0.29303,-0.0417 -0.43955,-0.0626 -0.14649,-0.0211 -0.29382,-0.0645 -0.44216,-0.13079 -0.15012,-0.11177 -0.30971,-0.24236 -0.47955,-0.39061 -0.16976,-0.14817 -0.33009,-0.30113 -0.48195,-0.4578 -0.41416,-0.35083 -0.85215,-0.6318 -1.31541,-0.84036 -0.46301,-0.20842 -0.96223,-0.17875 -1.49904,0.0866 -0.14312,0.0708 -0.30276,0.18434 -0.47947,0.34013 -0.17666,0.15573 -0.35261,0.32288 -0.52862,0.50061 -0.17441,0.22267 -0.31067,0.48405 -0.40966,0.78368 -0.0989,0.29945 -0.14266,0.60637 -0.13149,0.92081 0.0455,0.25214 0.0994,0.48889 0.16218,0.71004 0.0628,0.22123 0.16904,0.38745 0.31924,0.49822 0.25953,0.10395 0.55232,0.12415 0.87875,0.0588 0.32627,-0.0651 0.67042,-0.13914 1.03253,-0.22188 0,0 0.009,-0.004 0.0269,-0.013 0.018,-0.009 0.0448,-0.0218 0.0806,-0.0391 0.61454,-0.15879 1.16772,-0.24276 1.65993,-0.25075 0.49205,-0.008 0.77174,0.3899 0.83944,1.19311 0.005,0.13677 0.0106,0.27355 0.0161,0.4103 0.005,0.13677 0.0284,0.26494 0.0696,0.38444 0.002,0.0455 0.003,0.0912 0.005,0.13681 0.002,0.0456 0.003,0.0912 0.005,0.13679 0.003,0.0911 0.007,0.18238 0.0106,0.27358 0.003,0.0911 0.007,0.1824 0.0106,0.27359 0.019,0.5016 -0.0243,1.01031 -0.13289,1.52562 -0.10831,0.51498 -0.37557,0.92 -0.80414,1.21242 -0.14562,0.0217 -0.28134,0.0625 -0.4073,0.12093 -0.12591,0.0586 -0.26078,0.12177 -0.40486,0.18869 -0.57614,0.26755 -1.08404,0.6304 -1.52659,1.08516 -0.44222,0.4544 -0.79507,1.06273 -1.06267,1.82296 -0.066,0.21243 -0.1136,0.41676 -0.14351,0.61279 -0.0298,0.19602 -0.0406,0.40638 -0.0322,0.63115 0.0204,0.58437 0.20293,1.06342 0.548,1.4362 0.34548,0.37325 0.75425,0.50265 1.2281,0.3848 0.11025,-0.003 0.21969,-0.0286 0.32833,-0.0766 0.10861,-0.0481 0.19897,-0.0884 0.2713,-0.12052 0.61523,-0.27296 1.11997,-0.75458 1.51651,-1.44163 0.3971,-0.68803 0.74376,-1.40464 1.04528,-2.14661 0.0685,-0.12439 0.12767,-0.24498 0.17821,-0.36118 0.0506,-0.11627 0.0917,-0.22856 0.12419,-0.33657 0.26897,-0.63614 0.54713,-1.2101 0.83815,-1.71967 0.29136,-0.51017 0.65091,-0.86878 1.08106,-1.0736 0.17933,-0.0854 0.3688,-0.14098 0.56866,-0.16626 0.19979,-0.0254 0.41084,0.003 0.63338,0.084 0.92201,0.21526 1.53819,1.00548 1.85178,2.36684 0.31403,1.36314 0.55811,2.83154 0.73495,4.40397 0.10746,0.80144 0.21391,1.59167 0.32052,2.37051 0.10672,0.77913 0.26431,1.4763 0.47447,2.09117 0.12193,1.12865 0.21951,2.33942 0.29333,3.63213 0.0738,1.29279 0.1396,2.61288 0.1974,3.96013 0.004,0.093 0.008,0.19745 0.0134,0.3136 0.005,0.11617 0.009,0.22066 0.0134,0.31356 0.0892,2.94207 0.0281,5.80411 -0.188,8.58252 -0.21571,2.77361 -0.77229,4.92334 -1.68007,6.43912 -0.86986,1.45047 -2.0979,2.67428 -3.6894,3.65303 -1.58865,0.97698 -3.29605,1.76487 -5.11807,2.36186 -0.0372,0.012 -0.0836,0.0275 -0.13943,0.0457 -0.0559,0.0182 -0.10239,0.0334 -0.13955,0.0456 -1.97321,0.59854 -3.86744,0.96375 -5.67576,1.11092 -1.81028,0.14732 -3.15681,0.0529 -4.03714,-0.26211 -1.03425,-0.40189 -1.86388,-0.98242 -2.49178,-1.73731 -0.62641,-0.75317 -0.95697,-1.79604 -0.99244,-3.13017 -0.004,-0.17219 -0.009,-0.33353 -0.0132,-0.48418 -0.004,-0.15061 -0.008,-0.31203 -0.0132,-0.48416 -0.0595,-2.2379 0.17214,-4.4931 0.69367,-6.77328 0.52328,-2.28927 1.08301,-4.57431 1.69129,-6.85332 0.068,-0.24417 0.13509,-0.4887 0.20299,-0.7332 0.068,-0.24455 0.13496,-0.48951 0.20277,-0.73438 0.541,-2.05027 1.00567,-4.10886 1.40869,-6.17014 0.40425,-2.06753 0.57072,-4.09223 0.51032,-6.06705 -0.0309,-1.00936 -0.14412,-2.01655 -0.34121,-3.02025 -0.19687,-1.00255 -0.49124,-1.97173 -0.88854,-2.90439 -0.11707,-0.21378 -0.23303,-0.4169 -0.34933,-0.60848 -0.11628,-0.19145 -0.23206,-0.39413 -0.34894,-0.60707 -0.46284,-0.71958 -0.87832,-1.48041 -1.25115,-2.27994 -0.37196,-0.79762 -0.57171,-1.71625 -0.60094,-2.75674 -0.007,-0.26017 0.003,-0.52873 0.0324,-0.80583 0.029,-0.27715 0.0575,-0.55441 0.0864,-0.83172 0.87044,-1.68766 1.94304,-3.04707 3.22345,-4.07802 1.28232,-1.03246 2.63623,-1.91354 4.06617,-2.63779 z m -58.4126,23.01886 c 0.0765,-0.0225 0.1436,-0.0425 0.201,-0.0595 0.0575,-0.017 0.12435,-0.0369 0.20084,-0.0598 1.186,-0.35272 2.32001,-0.53941 3.40482,-0.54827 1.08384,-0.008 1.98555,0.22038 2.70431,0.69448 1.32853,1.69354 2.35824,3.61594 3.11284,5.74323 0.76037,2.14365 1.45201,4.36124 2.0986,6.6428 0.0382,0.1347 0.0756,0.26962 0.11379,0.40445 0.0383,0.13483 0.0757,0.2519 0.11395,0.35071 0.30615,0.97277 0.59709,1.94396 0.88425,2.90959 0.28801,0.96837 0.59892,1.92612 0.94461,2.86941 0.0385,0.1009 0.10488,0.19607 0.20081,0.28417 0.096,0.0881 0.18161,0.14275 0.25813,0.16226 0.11488,0.0474 0.22932,0.0403 0.34413,-0.0217 0.11488,-0.0619 0.17199,-0.20356 0.17187,-0.42374 0,0 2.3e-4,-0.0183 -3e-4,-0.0551 -0.23232,-3.17407 -0.67394,-6.2211 -1.34442,-9.1273 -0.66583,-2.88603 -1.53511,-5.57283 -2.63726,-8.04108 -0.0378,-0.0957 -0.0659,-0.2036 -0.0846,-0.32324 -0.0186,-0.11961 -0.0278,-0.25118 -0.0276,-0.39472 5e-4,-0.10763 0.01,-0.22725 0.0292,-0.35892 0.0192,-0.13163 0.0478,-0.25741 0.086,-0.37723 0.15341,-0.73136 0.50503,-1.46612 1.05317,-2.20869 0.55004,-0.74506 1.2003,-1.32307 1.95348,-1.73298 0.75388,-0.41029 1.50598,-0.80745 2.25691,-1.19025 0.75136,-0.38299 1.50095,-0.7149 2.25007,-0.99367 1.12364,-0.41817 2.17956,-0.65013 3.17082,-0.68561 0.99057,-0.0353 1.84337,0.28971 2.55752,0.98116 0.0766,0.24138 0.13433,0.49972 0.17379,0.77485 0.0394,0.27522 0.06,0.5479 0.0621,0.81794 0.006,0.77155 -0.0996,1.56504 -0.31975,2.3781 -0.21956,0.81149 -0.49327,1.64183 -0.8275,2.48752 -0.11102,0.30695 -0.2303,0.61723 -0.36053,0.92973 -0.13008,0.31217 -0.24966,0.62124 -0.36123,0.92626 -0.48325,1.15316 -0.91659,2.31554 -1.30985,3.48393 -0.39191,1.16437 -0.5844,2.31268 -0.57926,3.44769 1.5e-4,0.0756 7.1e-4,0.16079 0.002,0.25538 -5e-5,0.0947 5e-4,0.17973 6.6e-4,0.25539 7.4e-4,0.11348 0.01,0.21486 0.0298,0.30398 0.0194,0.089 0.0292,0.17159 0.0294,0.24728 0.0846,1.83342 0.36531,3.56837 0.85091,5.20716 0.48777,1.64608 1.01475,3.28168 1.59871,4.90153 0.11682,0.27889 0.22225,0.56116 0.31996,0.84529 0.0978,0.28434 0.18459,0.57168 0.26329,0.86105 0.50974,1.46187 0.94575,2.95768 1.32209,4.48139 0.37761,1.52875 0.57045,3.12921 0.58391,4.79593 0.007,0.85277 -0.0433,1.73546 -0.15179,2.64722 -0.10837,0.91071 -0.31175,1.85624 -0.61373,2.83395 -0.72361,1.04187 -1.56869,1.79514 -2.53355,2.25564 -0.48176,0.22995 -0.97407,0.41831 -1.47653,0.56538 -0.51212,0.10808 -1.02458,0.21411 -1.53726,0.31811 0,0 -1.9e-4,3e-5 -1.9e-4,3e-5 -0.76478,0.0205 -1.52979,0.0379 -2.29499,0.0524 -0.75578,-0.0242 -1.48269,-0.0721 -2.18057,-0.14287 -0.11637,-0.0242 -0.23267,-0.0391 -0.349,-0.0448 -0.11636,-0.005 -0.23263,-0.0211 -0.34898,-0.0451 -1.04676,-0.43688 -1.78203,-1.07635 -2.20843,-1.9163 -0.42502,-0.83715 -0.75182,-1.70934 -0.98316,-2.61665 -0.0384,-0.13908 -0.0768,-0.26022 -0.11537,-0.36322 -0.0385,-0.10308 -0.0769,-0.20606 -0.11542,-0.30895 -0.0382,-0.28225 -0.0952,-0.54417 -0.17233,-0.78538 -0.077,-0.24102 -0.15326,-0.48215 -0.23032,-0.72275 -0.0768,-0.31206 -0.14315,-0.61638 -0.20063,-0.91266 -0.0573,-0.29608 -0.1046,-0.58452 -0.14266,-0.86509 -0.0766,-0.34643 -0.14273,-0.67633 -0.20009,-0.98933 -0.0573,-0.31281 -0.12328,-0.62425 -0.19997,-0.93377 -0.53389,-2.65746 -1.09515,-5.26861 -1.70628,-7.82663 -0.60712,-2.5415 -1.40832,-4.94895 -2.44197,-7.1991 0,0 -0.0188,-0.022 -0.0571,-0.0656 -0.0383,-0.0436 -0.0759,-0.0962 -0.11409,-0.15714 -0.0766,-0.0177 -0.153,-0.0444 -0.22956,-0.0794 -0.0766,-0.0348 -0.17226,-0.0398 -0.28744,-0.0144 -0.0384,0.009 -0.0575,0.013 -0.0575,0.013 -0.50123,0.38501 -0.85697,0.86813 -1.0733,1.44601 -0.21585,0.57658 -0.32431,1.17426 -0.32832,1.79293 -7e-4,0.10298 -10e-4,0.2062 -0.002,0.30931 -7e-4,0.10298 0.0175,0.20261 0.0558,0.2982 -0.002,0.30943 0.0336,0.61175 0.10955,0.90662 0.0756,0.29513 0.14968,0.57378 0.22548,0.83497 0.18811,0.92999 0.49657,1.8763 0.93564,2.83707 0.44085,0.96462 0.90233,1.96816 1.39997,3.00349 0.19203,0.38866 0.38084,0.78848 0.57263,1.19638 0.19208,0.40857 0.38118,0.82826 0.57309,1.25621 0.38439,0.96389 0.71471,1.94966 1.0017,2.95244 0.28785,1.00564 0.42768,2.00675 0.42424,2.99944 -0.004,1.24092 -0.30569,2.47031 -0.91464,3.67595 -0.60538,1.19863 -1.64494,2.31499 -3.13369,3.31082 -0.54523,0.13773 -1.11991,0.25718 -1.72391,0.35781 -0.60382,0.10059 -1.21758,0.18149 -1.84108,0.24288 -0.2435,0.0277 -0.48705,0.055 -0.73063,0.0817 -0.24353,0.0104 -0.48711,0.0188 -0.73065,0.0288 -0.73011,-0.0231 -1.4602,-0.0493 -2.19033,-0.0781 -0.72009,-0.079 -1.39041,-0.24444 -2.01142,-0.49231 -0.89335,-0.27433 -1.57898,-0.73273 -2.06015,-1.36959 -0.4797,-0.63503 -0.87052,-1.31787 -1.17497,-2.04797 -0.0756,-0.22234 -0.1506,-0.43667 -0.22637,-0.64254 -0.0758,-0.20575 -0.15071,-0.41952 -0.22633,-0.64087 -0.0124,-0.17801 -0.0239,-0.35601 -0.0359,-0.53397 -0.0623,0.43477 -0.12404,0.86933 -0.18643,1.30342 -0.13188,0.44728 -0.32542,0.86214 -0.58371,1.24204 -0.51456,0.75692 -1.33837,1.34877 -2.47534,1.75538 -0.74301,0.24954 -1.54476,0.46171 -2.405,0.6333 -0.85926,0.17143 -1.75737,0.25765 -2.69292,0.26011 -0.31209,0.0214 -0.63383,0.0338 -0.96517,0.0373 -0.33136,0.003 -0.65285,-7.1e-4 -0.96446,-0.0128 -1.09066,-0.0428 -2.09233,-0.1787 -3.0049,-0.40063 -0.91272,-0.22198 -1.63748,-0.58274 -2.1772,-1.0746 -0.88417,-0.82662 -1.49564,-1.71054 -1.83579,-2.65523 -0.33894,-0.94128 -0.50186,-1.92261 -0.48904,-2.94687 0.0124,-0.99573 0.14172,-2.02592 0.38967,-3.0927 0.24918,-1.07026 0.53297,-2.15317 0.86029,-3.24727 0,0 0.01,-0.0146 0.0299,-0.0436 0.02,-0.0291 0.0299,-0.0438 0.0299,-0.0438 0.28822,-1.01214 0.5513,-2.01493 0.79936,-3.00474 0.24889,-0.99305 0.39568,-1.95541 0.44695,-2.8834 0,0 7e-5,-0.007 9e-5,-0.0217 1.6e-4,-0.0144 4.9e-4,-0.0362 2.8e-4,-0.065 -2e-4,-0.0289 -1.1e-4,-0.0506 2.9e-4,-0.0652 1.8e-4,-0.0144 1e-4,-0.0215 1e-4,-0.0215 0.002,-0.0579 10e-4,-0.11568 0.003,-0.17349 0.002,-0.0579 0.001,-0.11567 0.003,-0.17351 -0.0705,-0.63021 -0.30456,-1.20503 -0.71011,-1.71775 -0.40453,-0.51144 -1.05505,-0.75628 -1.95445,-0.74356 -0.0392,0.004 -0.0881,0.007 -0.14677,0.0119 -0.0586,0.004 -0.12721,0.0104 -0.20552,0.0155 -0.74388,0.0558 -1.39981,0.24584 -1.97282,0.56003 -0.57149,0.31336 -0.93748,0.76563 -1.10198,1.35616 -0.0423,0.25144 -0.074,0.49542 -0.0965,0.73192 -0.022,0.23645 -0.0345,0.46547 -0.0374,0.68711 -0.0111,0.96988 0.10386,1.92979 0.348,2.88118 0.24485,0.95419 0.51369,1.91957 0.8156,2.89401 0.0749,0.30708 0.15806,0.62183 0.25227,0.94352 0.0943,0.32205 0.17733,0.63791 0.25205,0.94664 0.18853,0.64668 0.335,1.29533 0.44461,1.94399 0.10983,0.64962 0.15965,1.29902 0.15173,1.94707 -0.0103,0.84528 -0.14606,1.69272 -0.41073,2.53865 -0.26368,0.84291 -0.72795,1.69325 -1.40249,2.53794 -0.47294,0.5761 -1.27435,0.95707 -2.40426,1.12572 -1.12785,0.16834 -2.33291,0.20605 -3.6125,0.11557 -0.15525,0.009 -0.32974,0.003 -0.5235,-0.0194 -0.19374,-0.0224 -0.36814,-0.0426 -0.52305,-0.0607 -0.96842,-0.11356 -1.84881,-0.26894 -2.64123,-0.46112 -0.79262,-0.19221 -1.40092,-0.38266 -1.82556,-0.56754 -0.88762,-0.42621 -1.61967,-0.90771 -2.19862,-1.44056 -0.57802,-0.53196 -1.05923,-1.09888 -1.44577,-1.69962 -0.15391,-0.44475 -0.26882,-0.87142 -0.34569,-1.28016 -0.0769,-0.40834 -0.11478,-0.79932 -0.11408,-1.17315 0.003,-1.42055 0.41357,-2.71523 1.23358,-3.89784 0.82878,-1.1952 1.7056,-2.38874 2.64841,-3.56939 0.99303,-1.21795 1.89263,-2.49362 2.72475,-3.8014 0.84082,-1.32142 1.25665,-2.76032 1.26882,-4.2872 0.004,-0.44754 -0.0321,-0.88697 -0.10751,-1.31768 -0.0756,-0.4303 -0.20858,-0.87751 -0.40275,-1.3397 -0.0767,-0.3105 -0.21141,-0.60496 -0.40691,-0.88161 -0.19528,-0.2763 -0.40922,-0.55186 -0.64442,-0.82437 0,0 -0.0102,-0.006 -0.0295,-0.0179 -0.0196,-0.0119 -0.0294,-0.0309 -0.0292,-0.0568 -0.27376,-0.37363 -0.53668,-0.74768 -0.79157,-1.12003 -0.2545,-0.37172 -0.38032,-0.76386 -0.37784,-1.17681 0.001,-0.18066 0.0315,-0.36346 0.0922,-0.54842 0.0606,-0.18508 0.15051,-0.37271 0.27039,-0.56277 0.79868,-0.70958 1.79922,-1.23583 3.006,-1.58366 1.20936,-0.34856 2.46411,-0.62105 3.76673,-0.81204 0.15786,-0.0198 0.32556,-0.0414 0.50311,-0.064 0.17755,-0.0229 0.36496,-0.0473 0.56218,-0.0732 0.23661,-0.0311 0.46334,-0.0616 0.68019,-0.0909 0.21683,-0.0292 0.42374,-0.0578 0.62078,-0.085 0.19671,4.9e-4 0.39359,-0.0136 0.59055,-0.0415 0.19692,-0.0279 0.39381,-0.056 0.59069,-0.0846 1.8e-4,-0.0138 -1.6e-4,-0.0277 0.001,-0.0416 0.62966,-0.0635 1.2592,-0.15084 1.88848,-0.26223 0.62938,-0.11141 1.23841,-0.21629 1.82741,-0.31317 0.58903,-0.0968 1.17768,-0.20376 1.76609,-0.32037 0.58831,-0.11662 1.17614,-0.22912 1.76345,-0.33658 1.44872,-0.26516 2.85413,-0.47352 4.21823,-0.6157 1.36296,-0.1421 2.70201,-0.13252 4.01833,0.0431 0.23097,0.13436 0.42275,0.27032 0.57604,0.40682 0.15338,0.1366 0.28706,0.27036 0.4017,0.40038 0.0759,0.13853 0.13188,0.2893 0.16865,0.45197 0.0368,0.16273 0.0539,0.33749 0.0515,0.52409 -0.005,0.43545 -0.12638,0.90289 -0.36613,1.39963 -0.23906,0.49547 -0.49569,1.00184 -0.77493,1.51602 -0.2384,0.41314 -0.46541,0.83969 -0.68552,1.27702 -0.21957,0.43629 -0.35033,0.85715 -0.39457,1.26232 -0.2027,0.61393 -0.34526,1.21756 -0.4311,1.81077 -0.0857,0.59258 -0.13126,1.14849 -0.13797,1.66799 -0.017,1.31406 0.18912,2.54734 0.6229,3.70253 0.43584,1.16059 0.95033,2.29885 1.55973,3.40839 0.22977,0.37874 0.44606,0.76181 0.65591,1.14476 0.21025,0.38364 0.4264,0.78507 0.6554,1.20026 0.84469,1.39288 1.59543,2.88618 2.27761,4.46366 0.34281,0.7927 0.61172,1.63721 0.81612,2.52907 0.12573,0.86964 0.24953,1.74103 0.37508,2.61358 0.0769,-0.80488 0.15279,-1.61059 0.22964,-2.41689 0.14594,-0.81053 0.35718,-1.6202 0.63907,-2.42856 0.56648,-1.62464 1.15939,-3.2375 1.79772,-4.83224 0.24105,-0.64575 0.4867,-1.28866 0.74603,-1.92502 0.26009,-0.63814 0.50502,-1.27114 0.74443,-1.89474 0.32189,-0.99867 0.58846,-1.9958 0.81154,-2.98673 0.22362,-0.99344 0.33715,-1.97129 0.34624,-2.93006 0.0103,-1.09103 -0.1503,-2.16464 -0.48925,-3.21507 -0.33767,-1.04652 -0.91885,-2.05604 -1.76066,-3.01121 -0.0377,-0.0892 -0.0941,-0.18266 -0.17039,-0.27947 -0.0762,-0.0967 -0.13246,-0.20617 -0.16984,-0.32768 -0.3037,-0.48314 -0.57572,-1.01283 -0.82098,-1.58647 -0.24467,-0.57219 -0.36298,-1.16451 -0.35626,-1.77762 0.003,-0.25811 0.0345,-0.52331 0.0953,-0.79563 0.0608,-0.27253 0.16963,-0.55735 0.32682,-0.85452 1.5e-4,-0.0161 6.5e-4,-0.0324 -3e-5,-0.0485 0.78123,-0.84234 1.75889,-1.61823 2.93362,-2.33444 1.17828,-0.71838 2.3964,-1.2849 3.6597,-1.69193 z"
       style="fill:url(#linearGradient4900);fill-opacity:1;stroke:#404040;stroke-width:0.35961723;stroke-linecap:butt;stroke-linejoin:round;stroke-miterlimit:10;stroke-dasharray:none;stroke-opacity:0"
       id="path3977"
       inkscape:connector-curvature="0" />
    <g
       transform="matrix(1.6166062e-5,0,0,1.6166062e-5,35.604217,157.0365)"
       id="g3985"
       style="fill:#f1da1d;fill-opacity:1">
      <path
         inkscape:connector-curvature="0"
         id="path3987"
         style="fill:#f1da1d;fill-opacity:1;stroke:#ffff00;stroke-width:92075;stroke-linecap:butt;stroke-linejoin:miter;stroke-miterlimit:8;stroke-dasharray:none;stroke-opacity:1"
         d="M 0,0 3052868,1" />
    </g>
    <g
       transform="matrix(1.6166062e-5,0,0,1.6166062e-5,57.503048,159.55141)"
       id="g3989"
       style="fill:#f1da1d;fill-opacity:1">
      <path
         inkscape:connector-curvature="0"
         id="path3991"
         style="fill:#f1da1d;fill-opacity:1;stroke:#ffff00;stroke-width:88900;stroke-linecap:butt;stroke-linejoin:miter;stroke-miterlimit:8;stroke-dasharray:none;stroke-opacity:1"
         d="M 0,229318 171816,0 343632,229318 Z" />
    </g>
    <text
       id="text4943"
       y="197.97023"
       x="25.702374"
       style="font-style:normal;font-weight:normal;font-size:10.58333302px;line-height:1.25;font-family:sans-serif;letter-spacing:0px;word-spacing:0px;fill:#000000;fill-opacity:1;stroke:none;stroke-width:0.5;stroke-miterlimit:4;stroke-dasharray:none;stroke-opacity:1"
       xml:space="preserve"><tspan
         dx="-5"
         style="font-style:normal;font-variant:normal;font-weight:bold;font-stretch:normal;font-size:50.79999924px;font-family:sans-serif;-inkscape-font-specification:'sans-serif Bold';letter-spacing:-6.61458349px;fill:#1767f0;fill-opacity:1;stroke:none;stroke-width:0.5;stroke-miterlimit:4;stroke-dasharray:none;stroke-opacity:1"
         y="197.97023"
         x="25.702374"
         id="tspan4941"
         sodipodi:role="line">Indepen </tspan></text>
    <text
       xml:space="preserve"
       style="font-style:normal;font-weight:normal;font-size:5.86001301px;line-height:1.25;font-family:sans-serif;letter-spacing:0px;word-spacing:0px;fill:#f1da1d;fill-opacity:1;stroke:none;stroke-width:0.14650033"
       x="39.529873"
       y="151.11156"
       id="text5377"
       transform="scale(0.97826846,1.0222143)"><tspan
         sodipodi:role="line"
         id="tspan5375"
         x="39.529873"
         y="151.11156"
         style="font-style:normal;font-variant:normal;font-weight:bold;font-stretch:normal;font-family:'Liberation Sans';-inkscape-font-specification:'Liberation Sans Bold';letter-spacing:-0.21166666px;fill:#f1da1d;fill-opacity:1;stroke-width:0.14650033">COMMON WEAL</tspan></text>
  </g>
</svg>
